<?xml version="1.0" standalone="no"?>
<!DOCTYPE svg PUBLIC "-//W3C//DTD SVG 20010904//EN"
 "http://www.w3.org/TR/2001/REC-SVG-20010904/DTD/svg10.dtd">
<svg version="1.0" xmlns="http://www.w3.org/2000/svg"
 width="90" height="90" viewBox="0 0 278.000000 357.000000"
 preserveAspectRatio="xMidYMid meet">
<metadata>
Created by potrace 1.10, written by Peter Selinger 2001-2011
</metadata>
<g transform="translate(0.000000,357.000000) scale(0.100000,-0.100000)"
fill="#000000" stroke="none">
<path d="M1311 3398 c-1 -40 -5 -76 -7 -80 -3 -4 2 -8 10 -8 18 0 19 -4 7 -28
-5 -9 -12 -24 -14 -33 -6 -19 -66 -14 -82 7 -7 10 -26 12 -65 9 -108 -8 -124
-12 -135 -30 -5 -10 -23 -29 -38 -43 -15 -14 -25 -32 -23 -39 3 -7 -3 -19 -14
-25 -24 -16 -26 -45 -3 -70 15 -17 15 -18 0 -18 -21 0 -23 -43 -3 -60 8 -6 16
-24 18 -38 2 -16 12 -31 26 -37 22 -10 26 -20 23 -61 -1 -11 7 -28 17 -37 13
-12 17 -26 14 -42 -2 -15 0 -25 7 -25 15 0 14 -62 -1 -83 -12 -15 -39 -17
-248 -17 -129 -1 -242 -5 -250 -10 -12 -7 -15 -74 -18 -403 -4 -384 -1 -450
29 -607 18 -90 17 -92 -26 -120 -22 -15 -53 -32 -70 -37 -29 -9 -30 -12 -30
-71 0 -80 -17 -98 -41 -43 -21 48 -43 52 -82 16 -15 -14 -32 -25 -39 -25 -7 0
-13 -4 -13 -10 0 -5 -18 -13 -40 -16 -37 -6 -40 -9 -40 -38 0 -31 44 -146 82
-215 66 -119 141 -236 180 -283 13 -14 32 -37 42 -49 10 -12 44 -50 75 -84 98
-107 121 -134 121 -144 0 -4 6 -14 13 -20 8 -6 20 -28 27 -50 14 -42 53 -91
74 -91 7 0 18 11 26 24 l13 25 50 -50 c27 -27 56 -49 63 -49 8 0 14 -4 14 -8
0 -9 80 -52 135 -73 87 -32 269 -60 355 -53 95 8 161 18 166 25 3 5 13 9 23 9
9 0 41 11 69 25 29 14 55 25 58 25 14 0 140 90 162 115 22 26 24 26 49 10 37
-25 65 -6 102 70 17 34 42 74 56 89 14 15 25 30 25 33 0 3 11 15 23 27 13 11
37 39 53 61 16 22 44 56 61 75 18 19 36 43 39 53 3 9 10 17 15 17 5 0 9 4 9
10 0 5 10 21 23 36 21 25 60 84 74 114 3 8 9 17 12 20 12 10 32 46 72 130 77
161 83 177 73 214 -5 20 -12 26 -34 26 -32 0 -86 26 -111 53 -9 9 -20 17 -23
17 -13 0 -36 -28 -36 -44 0 -20 -34 -38 -55 -30 -12 5 -15 13 -10 28 4 11 10
40 12 64 4 32 2 42 -9 42 -22 0 -112 46 -128 65 -11 13 -11 25 -2 63 6 26 14
67 18 92 3 25 8 54 11 65 8 37 13 199 16 543 l3 342 -277 0 -276 0 1 49 c0 27
4 53 9 57 4 4 7 16 7 26 0 10 9 27 21 39 15 15 19 28 14 48 -5 23 -1 33 19 49
15 11 26 27 26 36 0 9 7 27 14 39 8 12 14 36 14 53 -1 17 2 36 6 43 4 6 0 21
-8 33 -9 12 -16 33 -16 45 0 15 -10 28 -30 38 -16 9 -30 22 -30 30 0 8 -12 18
-27 21 -16 4 -36 13 -47 20 -12 8 -26 10 -41 4 -13 -5 -32 -6 -43 -3 -12 3
-31 -2 -44 -11 -35 -25 -71 -20 -85 11 -16 33 -16 46 -3 38 6 -4 10 20 10 64
0 45 -4 71 -11 71 -6 0 -9 7 -5 15 4 13 -7 15 -72 15 l-78 0 -3 -72z m114 43
c3 -5 -5 -17 -17 -25 -23 -17 -48 -6 -48 20 0 16 55 20 65 5z m35 -61 c0 -45
-24 -56 -34 -16 -7 30 2 56 20 56 10 0 14 -12 14 -40z m-102 -13 c2 -19 -1
-27 -12 -27 -11 0 -16 10 -16 31 0 38 24 35 28 -4z m52 8 c0 -8 -7 -15 -15
-15 -8 0 -15 7 -15 15 0 8 7 15 15 15 8 0 15 -7 15 -15z m18 -52 c2 -9 -8 -13
-32 -13 -34 0 -44 8 -29 24 11 11 56 2 61 -11z m-28 -53 c0 -16 7 -20 30 -20
17 0 30 -4 30 -10 0 -6 -28 -10 -65 -10 -37 0 -65 4 -65 10 0 6 9 10 20 10 13
0 20 7 20 20 0 11 7 20 15 20 8 0 15 -9 15 -20z m30 5 c0 -8 -4 -15 -10 -15
-5 0 -10 7 -10 15 0 8 5 15 10 15 6 0 10 -7 10 -15z m-280 -46 c0 -12 -29 -24
-37 -16 -3 4 -3 13 0 21 6 16 37 11 37 -5z m66 10 c9 -15 -11 -33 -30 -26 -9
4 -13 13 -10 22 7 17 30 20 40 4z m459 -8 c0 -8 -4 -16 -10 -18 -16 -5 -38 14
-30 26 9 16 40 9 40 -8z m-72 2 c4 -3 2 -12 -4 -20 -9 -10 -15 -10 -25 -2 -8
6 -14 15 -14 20 0 10 34 12 43 2z m-523 -21 c0 -16 8 -18 63 -18 36 1 77 -5
93 -13 82 -39 92 -45 88 -53 -5 -8 -79 18 -102 35 -7 6 -40 10 -72 10 -53 0
-62 -3 -82 -28 -13 -16 -26 -36 -30 -44 -11 -25 -9 -110 3 -133 13 -24 13 -24
-28 -33 -29 -6 -33 -4 -33 14 0 21 25 30 32 11 2 -6 2 24 0 67 -4 74 -2 80 27
121 23 30 27 42 16 42 -18 0 -20 26 -2 33 22 9 27 7 27 -11z m658 -5 c2 -10
-3 -17 -12 -17 -10 0 -16 9 -16 21 0 24 23 21 28 -4z m-458 -1 c0 -19 -14 -28
-34 -20 -25 10 -19 34 9 34 15 0 25 -6 25 -14z m154 5 c15 -23 -60 -37 -92
-17 -8 5 -12 0 -12 -13 0 -23 -1 -24 -24 -15 -23 9 -20 21 12 37 30 17 108 22
116 8z m106 -7 c0 -9 -7 -14 -17 -12 -25 5 -28 28 -4 28 12 0 21 -6 21 -16z
m-60 -17 c0 -8 -3 -17 -7 -20 -9 -9 -34 13 -27 24 8 14 34 11 34 -4z m252 -29
c15 -17 30 -44 33 -60 8 -35 -3 -126 -17 -134 -18 -11 -20 5 -8 53 13 54 0
102 -40 138 -26 23 -119 25 -154 1 -31 -20 -102 -33 -91 -17 16 27 146 62 205
55 34 -4 51 -12 72 -36z m-346 5 c-3 -10 -1 -25 5 -33 9 -12 10 -12 5 3 -8 24
1 38 19 30 11 -3 15 -19 14 -52 -1 -38 -2 -42 -9 -21 -7 22 -8 21 -9 -12 -1
-21 4 -38 9 -38 6 0 10 -5 10 -12 0 -6 -3 -8 -6 -5 -4 4 -15 -3 -25 -15 -21
-24 -23 -20 -9 16 8 21 6 24 -10 23 -13 -1 -16 -5 -10 -13 11 -12 3 -24 -16
-24 -10 0 -12 19 -11 73 2 51 6 71 15 69 7 -1 15 5 18 13 8 21 17 19 10 -2z
m-356 -8 c0 -8 -9 -15 -20 -15 -11 0 -20 7 -20 15 0 8 9 15 20 15 11 0 20 -7
20 -15z m768 -2 c-2 -10 -10 -18 -18 -18 -8 0 -16 8 -18 18 -2 12 3 17 18 17
15 0 20 -5 18 -17z m-566 -19 c42 -14 79 -32 82 -41 9 -22 1 -27 -22 -14 -36
19 -63 15 -206 -35 l-38 -13 7 36 c9 47 23 68 54 81 38 15 39 14 123 -14z
m464 -6 c9 -8 19 -32 24 -52 9 -40 -2 -47 -36 -21 -10 8 -29 15 -42 15 -12 0
-41 9 -64 21 -38 19 -58 20 -102 3 -11 -4 -16 -1 -16 10 0 10 9 16 23 16 12 0
40 7 62 15 48 18 130 14 151 -7z m-698 -41 c2 -12 -3 -17 -17 -17 -15 0 -21 6
-21 21 0 25 33 22 38 -4z m817 3 c3 -5 4 -14 0 -20 -8 -13 -35 -1 -35 16 0 16
26 19 35 4z m-259 -20 c20 0 17 -23 -6 -50 -11 -13 -20 -28 -20 -35 0 -21 -37
-47 -62 -43 -21 3 -23 7 -19 48 2 25 7 53 12 62 9 17 43 28 67 22 8 -2 20 -4
28 -4z m-256 -18 c20 -13 26 -27 27 -59 2 -30 -2 -43 -14 -47 -19 -8 -83 39
-83 60 0 7 -4 14 -9 14 -12 0 -23 29 -15 41 9 15 67 10 94 -9z m-125 -34 c-4
-13 -9 -35 -12 -50 -3 -16 -12 -28 -19 -28 -8 0 -14 -4 -14 -10 0 -5 -7 -10
-15 -10 -8 0 -15 6 -15 14 0 7 -9 16 -20 19 -13 3 -20 14 -20 31 0 31 39 55
89 56 30 0 33 -2 26 -22z m510 -3 c27 -27 33 -65 10 -65 -7 0 -18 -8 -24 -17
-15 -27 -54 0 -69 47 -17 57 -16 60 23 60 25 0 44 -8 60 -25z m130 -1 c0 -10
-8 -20 -17 -22 -18 -3 -26 27 -11 42 12 11 28 0 28 -20z m-817 -7 c2 -12 -3
-17 -17 -17 -15 0 -21 6 -21 21 0 25 33 22 38 -4z m220 -19 c7 -7 12 -28 12
-47 0 -32 1 -33 18 -18 10 10 21 17 24 17 12 0 18 -34 12 -66 -7 -41 -24 -45
-24 -7 0 26 -1 26 -17 10 -16 -16 -16 -19 -3 -27 16 -10 13 -12 -32 -14 -28
-2 -39 18 -15 27 7 3 5 6 -5 6 -10 1 -18 -6 -18 -14 0 -25 -14 -17 -28 15 -16
36 -8 53 24 47 22 -4 24 -1 24 39 0 45 7 53 28 32z m362 -34 c0 -30 3 -34 25
-34 19 0 25 -5 25 -23 0 -13 -7 -32 -15 -43 -13 -17 -14 -17 -15 -1 0 21 -20
23 -20 2 0 -10 -11 -15 -35 -15 -33 0 -35 2 -29 28 l5 27 -20 -24 -21 -23 0
42 c0 42 0 42 31 36 25 -5 30 -3 28 12 -4 23 19 64 32 57 5 -4 9 -22 9 -41z
m-170 7 c0 -11 -5 -23 -10 -26 -6 -4 -8 -15 -5 -26 5 -13 2 -19 -10 -19 -10 0
-15 7 -14 18 2 9 -2 27 -9 38 -13 25 -7 34 25 34 16 0 23 -6 23 -19z m375 -16
c0 -10 -6 -20 -12 -22 -8 -3 -13 5 -13 22 0 17 5 25 13 23 6 -3 12 -13 12 -23z
m-710 -37 c-10 -31 -21 -42 -34 -34 -15 10 -14 43 2 49 28 12 38 7 32 -15z
m662 2 c2 -8 -2 -22 -7 -30 -9 -13 -11 -13 -20 0 -16 25 -12 52 7 48 10 -2 19
-10 20 -18z m-380 -6 c4 -11 -1 -22 -12 -30 -28 -21 -35 -17 -35 16 0 23 4 30
20 30 11 0 23 -7 27 -16z m103 -8 c0 -31 -12 -39 -35 -22 -23 16 -13 46 15 46
15 0 20 -7 20 -24z m-342 -44 c2 -14 -2 -22 -12 -22 -19 0 -29 17 -22 36 8 22
30 12 34 -14z m568 -11 c-11 -18 -36 -13 -36 7 0 10 3 22 7 26 10 10 37 -20
29 -33z m-276 18 c0 -20 54 -60 73 -54 9 3 26 8 37 11 16 5 19 3 14 -10 -6
-15 -36 -22 -74 -17 -8 1 -34 2 -57 2 -41 0 -55 10 -33 24 6 4 17 1 25 -5 19
-16 19 1 0 26 -19 25 -19 34 0 34 8 0 15 -5 15 -11z m-45 -28 c-10 -33 -60
-55 -96 -42 -21 7 -43 6 -80 -3 -42 -11 -59 -11 -87 -2 -20 7 -38 18 -40 24
-5 17 33 15 48 -3 7 -8 21 -15 31 -15 9 0 24 7 33 15 17 17 36 20 36 5 0 -5 5
-10 10 -10 6 0 10 7 10 15 0 18 2 18 35 3 22 -10 32 -9 61 7 19 10 34 23 34
28 0 6 3 8 6 4 3 -3 3 -15 -1 -26z m371 18 c3 -6 1 -16 -5 -22 -9 -9 -14 -8
-21 3 -9 15 -4 30 10 30 5 0 12 -5 16 -11z m-130 -39 c6 -6 23 -6 47 2 38 12
58 5 40 -13 -26 -26 -133 -18 -133 11 0 13 33 13 46 0z m83 -45 c-7 -7 -96
-11 -421 -20 -183 -5 -222 -2 -204 16 3 2 145 6 318 8 172 1 310 0 307 -4z
m-207 -50 c5 -22 2 -25 -23 -25 -21 0 -29 5 -29 18 0 40 45 46 52 7z m57 12
c16 -20 -6 -39 -31 -26 -15 8 -17 13 -7 25 14 17 23 18 38 1z m75 -3 c11 -28
7 -34 -24 -34 -25 0 -30 4 -30 25 0 20 5 25 24 25 13 0 27 -7 30 -16z m66 -8
c0 -19 -5 -24 -25 -22 -19 1 -25 7 -25 24 0 17 6 22 25 22 20 0 25 -5 25 -24z
m-560 -6 c0 -23 -35 -28 -43 -6 -7 18 1 26 25 26 11 0 18 -7 18 -20z m110 5
c-3 -5 -15 -10 -27 -10 -13 1 -23 -5 -23 -13 0 -9 -6 -12 -16 -8 -9 3 -20 6
-25 6 -5 0 -9 9 -9 20 0 18 6 20 53 17 30 -1 50 -6 47 -12z m88 -7 c3 -15 -4
-18 -36 -18 -36 0 -40 2 -35 21 4 16 12 19 37 17 20 -2 32 -9 34 -20z m85 16
c14 -15 -8 -34 -39 -34 -27 0 -34 4 -34 20 0 16 7 20 33 20 19 0 36 -3 40 -6z
m-293 -69 c0 -8 7 -15 16 -15 10 0 14 6 10 15 -5 13 11 15 109 15 96 0 115 -3
115 -15 0 -9 9 -15 23 -14 12 0 16 3 10 6 -40 16 3 23 137 23 142 0 150 -1
150 -19 0 -23 -17 -29 -87 -29 -33 0 -51 4 -50 11 1 7 -7 12 -18 13 -15 1 -16
0 -2 -3 9 -3 15 -8 12 -13 -3 -5 -107 -9 -230 -10 l-225 0 0 25 c0 16 6 25 15
25 8 0 15 -7 15 -15z m1124 -450 c0 -410 -6 -504 -39 -615 -8 -25 -19 -65 -26
-90 -7 -25 -18 -56 -25 -70 -48 -100 -64 -137 -64 -148 0 -6 -4 -12 -9 -12 -5
0 -11 -8 -15 -18 -20 -58 -135 -208 -228 -297 -91 -86 -125 -115 -138 -115 -6
0 -10 -3 -10 -8 0 -4 -26 -23 -57 -41 -32 -19 -60 -37 -63 -41 -14 -17 -164
-70 -183 -64 -63 18 -258 125 -265 145 -2 5 -8 9 -13 9 -10 0 -39 22 -76 58
-13 12 -26 22 -28 22 -22 0 -183 197 -242 295 -90 150 -157 338 -182 510 -11
81 -10 854 2 872 6 9 139 12 549 13 298 0 544 3 547 5 2 3 131 4 285 3 l281
-3 -1 -410z m-1624 -713 c0 -25 56 -165 80 -202 5 -8 17 -31 27 -50 33 -67
135 -200 216 -283 70 -71 185 -167 201 -167 9 0 141 -85 144 -92 2 -5 10 -8
18 -8 11 0 14 -9 12 -32 -3 -29 -7 -33 -36 -36 -39 -4 -34 -17 15 -37 57 -24
179 -20 233 7 52 27 56 42 14 46 -65 6 -46 54 39 97 20 11 37 23 37 27 0 5 5
8 11 8 40 0 256 194 343 310 73 95 193 319 211 393 8 29 35 45 35 21 0 -17
-10 -41 -71 -171 -22 -45 -44 -85 -49 -88 -6 -3 -10 -13 -10 -22 0 -32 29 9
80 110 27 56 50 105 50 109 0 4 4 18 10 32 9 25 10 25 47 10 43 -18 53 -30 46
-53 -16 -49 -49 -126 -55 -129 -5 -2 -8 -9 -8 -15 0 -13 -39 -96 -53 -115 -8
-10 -12 -10 -18 -1 -6 10 -11 10 -25 -2 -15 -13 -16 -12 -9 10 6 20 4 22 -14
16 -16 -5 -20 -3 -15 9 3 9 1 16 -5 16 -6 0 -11 -5 -11 -11 0 -6 -6 -9 -14 -6
-9 4 -34 -23 -71 -74 -60 -84 -70 -117 -16 -52 18 21 29 31 26 22 -4 -11 5
-25 26 -42 32 -25 49 -27 49 -6 0 6 -4 7 -10 4 -5 -3 -10 -2 -10 4 0 5 10 11
22 13 32 5 35 28 4 28 -15 0 -25 5 -23 13 1 7 -8 12 -24 12 -18 -1 -25 4 -22
12 3 7 9 13 13 13 4 0 10 10 14 23 4 13 9 18 13 12 5 -6 23 -21 41 -34 26 -18
36 -20 47 -11 12 10 12 8 2 -14 -7 -14 -15 -26 -19 -26 -5 0 -8 -4 -8 -10 0
-20 16 -9 35 23 10 17 21 34 25 37 3 3 14 21 23 40 10 19 21 42 26 50 25 43
61 127 61 142 0 9 5 20 10 23 6 3 10 17 10 31 0 13 5 24 10 24 6 0 10 -2 10
-5 0 -16 -32 -122 -49 -160 -11 -25 -16 -45 -12 -45 5 0 11 9 14 20 4 17 10
20 34 14 15 -4 29 -8 31 -9 4 -3 -23 -64 -36 -83 -12 -17 -42 -5 -52 22 -8 21
-8 21 -16 1 -4 -11 -15 -31 -24 -45 -9 -14 -30 -45 -46 -70 -82 -127 -222
-282 -319 -355 -22 -17 -45 -34 -51 -40 -15 -13 -58 -47 -114 -90 -41 -32 -81
-46 -80 -27 1 4 42 36 91 72 50 36 97 71 104 78 8 6 16 12 20 12 7 0 211 205
235 235 39 51 62 87 57 91 -2 2 -24 -21 -48 -53 -55 -74 -133 -160 -179 -197
-20 -16 -24 -17 -32 -3 -4 9 -21 22 -38 30 -41 21 -57 2 -39 -48 13 -35 29
-47 29 -21 0 7 9 16 20 19 29 7 25 -2 -17 -39 -24 -22 -40 -29 -44 -22 -4 6
-14 8 -22 5 -10 -4 -18 1 -22 14 -7 21 -35 27 -35 7 1 -24 39 -61 53 -52 13 9
-13 -14 -45 -41 -21 -17 -96 -65 -102 -65 -2 0 -6 13 -9 29 -4 18 -14 32 -27
36 -11 3 -20 10 -20 15 0 11 30 21 42 13 6 -3 8 -2 5 4 -5 9 25 43 39 43 9 0
146 105 182 140 19 17 31 34 28 37 -3 4 -18 -7 -34 -23 -40 -42 -117 -104
-130 -104 -6 0 -12 -4 -14 -9 -1 -5 -39 -30 -83 -57 -78 -47 -79 -48 -50 -56
17 -4 36 -17 43 -29 11 -18 11 -24 -5 -41 -10 -11 -33 -27 -53 -35 -65 -30
-253 -15 -306 24 -25 18 -8 47 30 51 32 4 32 28 2 46 -11 6 -25 15 -30 19 -6
4 -51 34 -101 66 -170 112 -337 299 -441 499 -54 102 -106 231 -98 244 8 12
24 -1 24 -20z m-30 -29 c0 -10 7 -31 15 -47 9 -16 17 -38 19 -48 1 -11 9 -27
17 -36 8 -10 24 -38 37 -62 77 -152 255 -368 379 -462 42 -31 43 -32 23 -50
-10 -10 -22 -18 -25 -18 -8 0 -35 -27 -35 -34 0 -3 11 -6 25 -6 25 0 37 -30
13 -30 -15 -1 42 -50 57 -50 6 0 -3 11 -19 23 -27 22 -28 24 -9 29 23 6 37 56
22 75 -6 6 -6 13 -2 16 10 6 54 -28 48 -37 -3 -3 -2 -4 1 -1 12 8 45 -16 38
-27 -4 -7 -3 -8 4 -4 6 4 21 2 32 -4 21 -11 21 -12 -8 -45 -16 -18 -32 -39
-34 -46 -3 -9 -11 -8 -34 6 -27 16 -26 15 5 -12 20 -17 42 -28 52 -26 9 3 27
-1 40 -8 69 -37 290 -39 329 -4 25 23 39 18 57 -19 17 -36 12 -73 -8 -60 -8 4
-9 3 -5 -4 10 -17 -36 -32 -87 -29 -32 1 -44 7 -49 22 -6 17 -7 16 -5 -5 1
-14 8 -24 15 -23 6 2 12 -2 12 -7 0 -23 106 5 137 36 13 12 18 13 21 4 3 -7
-2 -16 -9 -21 -8 -5 -10 -9 -6 -9 11 0 71 46 116 88 54 51 151 122 167 122 23
0 16 -20 -12 -30 -14 -6 -31 -16 -38 -23 -12 -10 -76 -68 -156 -137 l-25 -22
28 16 c15 9 32 14 37 11 6 -3 7 1 4 9 -6 16 10 23 19 9 2 -5 2 -2 0 6 -2 8 2
11 11 8 9 -4 13 -1 11 6 -5 15 101 106 133 114 18 4 30 -1 48 -22 27 -32 31
-55 9 -55 -8 0 -15 -4 -15 -8 0 -16 -57 -72 -65 -64 -4 4 -5 1 -1 -5 4 -7 2
-13 -3 -13 -6 0 -10 -3 -9 -8 5 -13 -40 -54 -51 -47 -6 3 -12 18 -12 33 -2 24
-2 25 -6 4 -3 -13 1 -30 9 -39 9 -12 10 -17 1 -20 -6 -2 -24 -15 -40 -29 l-28
-26 30 15 c33 17 94 75 157 149 23 26 45 48 50 48 4 0 5 -25 2 -57 -5 -41 -4
-54 4 -49 7 4 12 14 12 22 0 18 46 104 63 119 40 34 44 75 7 75 -10 0 -20 10
-23 21 -4 16 -11 20 -26 16 -12 -3 -21 -1 -21 4 0 5 -4 9 -9 9 -19 0 -7 -45
18 -72 27 -31 44 -37 35 -13 -4 10 0 15 15 15 29 0 26 -13 -9 -48 l-30 -30
-21 31 c-12 18 -29 38 -37 44 -14 11 -13 15 4 34 19 22 19 22 -3 17 -34 -9
-28 2 33 62 47 46 177 197 217 251 25 33 116 209 155 299 8 19 19 43 23 52 5
10 9 25 9 33 0 8 4 15 9 15 19 0 21 -18 6 -46 -8 -16 -15 -34 -15 -39 0 -6
-27 -66 -61 -134 -33 -67 -58 -125 -55 -128 3 -3 10 7 16 23 6 16 14 31 18 34
4 3 12 15 17 28 9 21 12 21 30 8 20 -14 19 -15 -8 -25 -33 -13 -31 -30 6 -51
30 -17 51 -5 25 14 -10 7 -15 16 -11 19 7 8 53 10 53 3 0 -16 -44 -75 -52 -70
-5 3 -16 -2 -24 -12 -14 -18 -15 -18 -9 4 6 21 4 23 -15 17 -15 -5 -20 -4 -16
4 4 6 3 11 -3 11 -5 0 -13 -5 -16 -10 -4 -6 -10 -8 -15 -5 -5 3 -17 -7 -26
-22 -10 -15 -24 -39 -33 -53 -8 -14 -14 -32 -13 -40 2 -11 1 -12 -6 -3 -5 9
-19 -2 -45 -37 -21 -28 -42 -50 -47 -50 -6 0 -10 -7 -10 -16 0 -14 3 -14 15
-4 9 7 15 8 15 2 0 -5 -7 -12 -15 -16 -18 -7 -20 -37 -3 -54 15 -15 61 -15 76
0 7 7 12 23 12 36 0 18 -5 23 -22 20 -12 -2 -24 -9 -26 -17 -3 -10 0 -12 12
-8 10 4 16 1 16 -8 0 -20 -39 -19 -46 0 -4 8 -1 22 6 30 7 8 10 21 7 28 -3 8
-2 19 2 26 6 10 11 10 22 -1 8 -7 26 -23 40 -34 l27 -20 -36 -47 c-24 -31 -44
-47 -58 -47 -12 0 -31 -3 -41 -7 -15 -6 -16 -4 -6 9 16 18 5 32 -14 17 -16
-14 -17 3 -1 19 9 9 8 12 -4 12 -20 0 -44 -28 -32 -38 5 -4 22 -18 37 -32 24
-21 30 -22 37 -10 6 9 10 10 10 3 0 -7 -8 -16 -17 -22 -10 -5 -15 -13 -10 -17
10 -10 49 27 43 42 -2 6 1 11 8 10 11 -1 45 35 107 114 48 61 129 197 110 186
-6 -4 -11 -2 -11 3 0 6 6 11 14 11 7 0 22 12 32 28 34 51 117 217 123 246 4
16 13 32 20 34 22 7 5 -57 -34 -134 -19 -38 -35 -74 -35 -81 0 -7 -4 -13 -9
-13 -5 0 -13 -10 -16 -23 -4 -12 -18 -36 -31 -54 -13 -17 -24 -34 -24 -38 0
-11 -84 -135 -92 -135 -4 0 -8 -5 -8 -11 0 -13 -89 -125 -176 -222 -36 -39
-75 -93 -86 -119 -12 -27 -25 -48 -30 -48 -4 0 -8 -7 -8 -15 0 -9 -9 -15 -25
-15 -22 0 -25 4 -25 38 l-1 37 -20 -28 c-75 -99 -183 -167 -359 -223 -74 -24
-101 -27 -210 -27 -89 0 -143 6 -185 18 -91 27 -145 47 -145 54 0 3 -15 12
-32 20 -31 13 -81 49 -135 95 -12 11 -34 36 -49 58 -15 21 -30 38 -34 38 -4 0
-6 -19 -6 -41 1 -60 -18 -59 -49 2 -27 55 -82 135 -123 178 -14 14 -54 60 -91
101 -36 41 -81 90 -98 109 -18 19 -33 38 -33 42 0 4 -6 14 -13 21 -11 12 -57
98 -114 213 -14 28 -36 72 -49 98 -24 49 -30 77 -16 77 4 0 13 -13 20 -29 9
-19 18 -28 28 -24 9 3 14 -1 14 -12 0 -9 -4 -13 -10 -10 -15 9 -13 0 12 -52
12 -25 24 -41 26 -35 2 7 14 12 26 12 30 0 76 22 76 38 0 17 -25 15 -40 -3
-16 -19 -51 -20 -44 -1 3 7 16 19 30 26 13 7 24 19 24 27 0 17 -5 16 -38 -4
-36 -23 -42 -33 -36 -63 l5 -25 -15 25 c-19 31 -20 50 -2 50 18 0 66 39 66 53
-1 7 -10 23 -21 36 -17 21 -24 23 -47 15 -15 -5 -29 -19 -32 -34 l-6 -25 -12
22 c-15 27 -15 33 -1 33 6 0 26 12 45 26 37 29 57 23 70 -19 12 -42 110 -231
164 -317 19 -30 34 -57 34 -60 -1 -3 4 -9 11 -15 6 -5 35 -40 63 -76 l51 -66
-29 -28 c-35 -33 -38 -50 -10 -42 17 4 20 0 20 -26 -1 -32 -2 -31 -75 48 -41
44 -74 74 -75 68 0 -7 5 -13 10 -13 6 0 10 -4 10 -9 0 -5 27 -36 60 -69 43
-42 66 -58 80 -55 26 7 63 49 55 63 -4 7 -13 4 -26 -11 l-19 -22 2 48 c2 45 3
46 19 26 10 -12 20 -21 23 -21 13 0 5 17 -21 46 -63 71 -156 194 -187 250 -9
16 -30 52 -46 79 -28 48 -80 153 -102 205 -6 14 -14 33 -19 42 -12 23 -11 28
2 28 5 0 17 -17 26 -37 56 -135 173 -353 194 -361 5 -2 9 -8 9 -14 0 -18 77
-112 188 -229 35 -37 59 -70 54 -73 -5 -3 -19 4 -31 15 -12 12 -25 18 -28 15
-3 -3 6 -17 21 -31 16 -15 24 -30 20 -38 -15 -25 -59 -77 -65 -77 -4 0 -14 12
-24 26 -16 25 -16 26 4 19 25 -8 61 14 61 37 0 21 -16 24 -23 4 -7 -17 -50
-29 -44 -13 2 7 13 16 25 22 12 5 22 15 22 22 0 21 -19 24 -38 5 -10 -10 -28
-25 -40 -33 l-21 -15 24 -27 c14 -14 25 -31 25 -37 0 -5 4 -10 8 -10 9 0 30
-38 43 -75 5 -15 7 -10 8 17 1 46 15 55 38 28 10 -12 31 -36 47 -53 l29 -32
-27 38 c-15 20 -24 42 -20 49 4 6 3 8 -3 5 -9 -6 -43 26 -43 41 1 16 50 62 67
62 20 0 47 -35 38 -50 -3 -5 0 -12 6 -16 8 -4 9 -3 5 4 -4 7 -2 12 3 12 6 0
11 -4 11 -10 0 -14 37 -50 44 -43 3 3 8 -2 12 -11 3 -9 11 -16 16 -16 6 0 18
-8 27 -17 15 -16 127 -76 176 -94 80 -29 159 -41 227 -35 40 4 81 8 91 9 9 1
17 5 17 9 0 4 11 8 24 8 14 0 28 5 32 12 5 8 0 9 -17 4 -106 -30 -247 -31
-344 -1 -62 19 -165 68 -165 77 0 5 -4 8 -10 8 -10 0 -54 35 -74 58 -6 8 -32
35 -58 62 -48 48 -56 60 -39 60 13 0 101 -87 101 -100 0 -5 4 -10 8 -10 5 0
17 -8 28 -19 44 -41 152 -104 168 -97 6 2 0 8 -14 14 -29 11 -56 39 -47 48 3
3 22 -6 42 -21 19 -15 38 -25 42 -22 3 4 -6 11 -20 18 -31 14 -40 42 -21 66
19 25 17 33 -6 33 -10 0 -23 6 -27 13 -4 7 -39 33 -78 57 -38 24 -76 49 -83
56 -7 7 -34 30 -60 51 -64 51 -232 224 -232 239 0 7 -7 15 -16 18 -8 3 -13 10
-10 15 4 5 3 11 -2 13 -4 1 -23 28 -42 58 -19 30 -41 61 -48 69 -7 7 -22 34
-33 60 -12 25 -25 54 -31 65 -8 16 -48 133 -48 142 0 2 6 4 14 4 8 0 16 4 18
9 4 12 70 51 86 51 6 0 12 -8 12 -17z m1946 -129 c37 -18 41 -30 19 -60 -8
-10 -15 -25 -15 -32 0 -8 -14 -42 -32 -77 -30 -61 -32 -63 -47 -43 -9 11 -29
21 -44 21 -15 1 -27 7 -27 14 0 26 51 38 87 21 37 -18 39 0 4 34 -30 30 -32
30 -46 12 -9 -11 -7 1 6 31 11 28 25 60 30 73 10 26 20 27 65 6z m-168 -20
c12 -4 22 -11 22 -16 0 -14 -53 -5 -58 10 -4 13 2 15 36 6z m-1898 -18 c0 -18
-17 -29 -30 -21 -8 5 -7 11 1 21 15 18 29 18 29 0z m-130 -44 c0 -27 -9 -32
-31 -19 -27 17 -24 37 6 37 18 0 25 -5 25 -18z m168 -15 c13 -20 14 -31 6 -44
-16 -26 -32 -26 -39 -1 -4 13 -14 30 -22 40 -13 14 -12 17 4 27 24 14 31 11
51 -22z m21 -97 c-7 -5 -19 -6 -27 -3 -11 5 -9 10 9 24 21 16 24 16 27 2 2 -8
-2 -19 -9 -23z m1789 12 c2 -7 -3 -12 -10 -12 -15 0 -38 19 -38 32 0 11 43 -7
48 -20z m-1751 -29 c9 -24 56 -97 66 -101 4 -2 7 -10 7 -18 0 -8 4 -14 9 -14
5 0 13 -9 16 -20 7 -20 225 -250 238 -250 4 0 16 -8 26 -17 41 -39 73 -63 82
-63 5 0 9 -4 9 -10 0 -5 4 -10 10 -10 18 0 110 -72 110 -86 0 -8 -4 -14 -10
-14 -5 0 -10 -7 -10 -15 0 -8 -2 -15 -5 -15 -10 0 -95 64 -95 72 0 4 -5 8 -11
8 -11 0 -39 25 -39 34 0 13 -66 65 -81 66 -16 0 -169 146 -169 161 0 5 -7 9
-15 9 -8 0 -15 4 -15 10 0 5 -16 27 -35 47 -19 20 -38 45 -41 55 -3 10 -9 18
-14 18 -5 0 -14 16 -21 35 -7 19 -16 35 -19 35 -3 0 -14 15 -24 34 -16 29 -16
37 -5 50 18 20 28 20 36 -1z m1716 4 l25 -13 -22 -40 c-24 -46 -87 -133 -131
-183 -75 -86 -214 -221 -226 -221 -19 0 -60 -28 -127 -88 -106 -94 -104 -93
-119 -81 -27 23 -13 47 55 95 37 26 72 52 77 58 6 6 36 30 68 54 31 23 57 47
57 52 0 6 5 10 10 10 13 0 90 77 90 90 0 6 7 10 15 10 8 0 15 3 15 8 0 4 12
21 28 38 48 55 72 84 72 89 0 3 8 15 18 25 10 11 29 40 41 65 12 25 24 45 26
45 1 0 14 -6 28 -13z m94 -152 c13 -7 19 -16 14 -24 -6 -9 -17 -8 -50 5 -36
14 -44 15 -51 3 -6 -8 -3 -20 6 -30 10 -11 12 -19 5 -24 -6 -3 -11 -1 -11 4 0
6 -7 11 -15 11 -19 0 -19 5 2 38 31 47 36 51 58 39 11 -6 30 -16 42 -22z m-8
-65 c-30 -50 -67 -95 -79 -95 -17 0 -70 50 -70 65 0 23 40 8 55 -21 16 -30 35
-35 43 -9 3 7 0 10 -6 6 -5 -3 -13 1 -16 10 -9 24 -8 25 19 18 25 -6 35 8 15
21 -20 12 -9 24 19 22 23 -2 27 -5 20 -17z m-944 -256 c36 24 62 20 69 -9 4
-14 11 -25 16 -25 6 0 10 -6 10 -14 0 -22 -158 -36 -189 -17 -12 8 -12 15 3
46 17 36 18 36 42 20 23 -15 28 -15 49 -1z"/>
<path d="M1373 3093 c-18 -6 -16 -23 1 -23 17 0 30 16 19 23 -5 2 -14 2 -20 0z"/>
<path d="M2199 2586 c-2 -2 -362 -7 -799 -10 -437 -4 -795 -8 -797 -9 -1 -2
-6 -140 -9 -308 -9 -375 8 -585 55 -713 5 -11 14 -39 21 -61 20 -69 100 -237
126 -266 8 -8 14 -20 14 -25 0 -5 25 -40 56 -79 91 -115 223 -233 339 -302 58
-35 180 -93 195 -93 21 0 174 78 178 91 2 5 10 9 18 9 8 0 14 5 14 10 0 6 5
10 10 10 30 0 208 155 270 235 17 22 40 51 51 65 58 74 155 253 178 330 8 25
19 63 27 85 7 22 18 72 24 110 7 39 17 93 22 120 10 45 23 805 15 805 -2 0 -6
-2 -8 -4z m-21 -387 c-1 -339 -7 -445 -33 -544 -8 -27 -19 -72 -26 -100 -6
-27 -18 -60 -25 -72 -8 -12 -14 -32 -14 -43 0 -12 -3 -19 -7 -17 -5 3 -9 -5
-9 -18 -5 -72 -271 -431 -304 -410 -6 3 -7 -1 -4 -9 4 -11 0 -16 -10 -16 -9 0
-16 -4 -16 -10 0 -5 -12 -16 -27 -24 -16 -8 -44 -28 -63 -45 -19 -17 -40 -31
-47 -31 -6 0 -13 -3 -15 -7 -5 -12 -77 -56 -130 -81 l-46 -21 -59 29 c-109 56
-223 133 -223 151 0 5 -5 9 -11 9 -11 0 -47 30 -77 64 -10 10 -30 33 -47 51
-104 113 -175 203 -175 221 0 6 -6 17 -14 23 -27 22 -97 190 -117 281 -46 206
-50 246 -50 594 1 187 4 343 9 348 4 4 176 9 382 10 206 2 551 5 767 7 l392 3
-1 -343z"/>
<path d="M1682 2495 c6 -13 15 -22 19 -19 5 2 1 14 -9 24 -22 26 -24 25 -10
-5z"/>
<path d="M1981 2508 c-1 -10 -6 -18 -12 -18 -5 0 -7 -5 -3 -11 9 -15 28 16 20
34 -2 7 -5 4 -5 -5z"/>
<path d="M1424 2489 c19 -27 56 -53 56 -40 0 6 -5 11 -11 11 -5 0 -7 4 -4 10
3 6 -1 7 -9 4 -10 -4 -16 -1 -16 9 0 8 -7 18 -15 21 -14 5 -14 3 -1 -15z"/>
<path d="M1454 2498 c-4 -7 -3 -8 5 -4 6 4 14 0 17 -8 3 -9 10 -13 15 -10 5 3
3 12 -5 20 -18 17 -23 17 -32 2z"/>
<path d="M1552 2493 c-1 -10 -2 -31 -2 -48 l0 -30 -14 24 c-10 17 -15 20 -18
10 -5 -14 17 -69 28 -69 3 0 2 5 -1 10 -4 6 -1 17 5 25 7 8 10 24 7 35 -3 11
1 26 8 34 8 7 11 16 8 20 -11 11 -20 6 -21 -11z"/>
<path d="M1762 2483 c-11 -26 -11 -27 3 -9 14 19 15 19 15 -10 l0 -29 20 30
c11 17 20 24 20 15 1 -11 3 -11 11 3 6 10 8 21 5 24 -3 4 -6 1 -6 -6 0 -7 -5
-9 -10 -6 -6 3 -13 -1 -17 -11 -5 -14 -7 -14 -18 5 -11 22 -11 22 -23 -6z"/>
<path d="M1875 2500 c-3 -5 -3 -15 1 -22 5 -7 2 -9 -8 -6 -8 4 -15 1 -15 -7 0
-7 6 -11 14 -8 8 3 13 -2 13 -15 0 -12 4 -23 8 -26 5 -3 7 5 6 17 -1 12 -3 22
-4 22 -1 0 -3 10 -6 22 -3 17 0 21 13 16 11 -4 14 -3 9 5 -9 15 -23 15 -31 2z"/>
<path d="M2056 2484 c18 -27 54 -51 54 -36 0 6 -9 12 -20 15 -11 3 -20 12 -20
20 0 8 -7 17 -15 21 -13 4 -12 1 1 -20z"/>
<path d="M2102 2491 c7 -11 16 -17 20 -15 5 3 2 12 -6 20 -21 20 -28 17 -14
-5z"/>
<path d="M1030 2492 c0 -18 29 -27 43 -13 9 9 8 11 -7 5 -11 -4 -21 -2 -27 7
-6 10 -9 11 -9 1z"/>
<path d="M1662 2490 c3 -8 2 -22 -3 -31 -6 -12 -3 -15 11 -14 11 1 23 5 27 9
5 4 2 6 -6 4 -7 -1 -15 5 -16 15 -2 11 -7 22 -11 25 -4 4 -4 0 -2 -8z"/>
<path d="M1725 2490 c-3 -5 -3 -10 2 -10 4 0 1 -5 -7 -10 -13 -9 -13 -11 0
-20 13 -9 8 -14 -12 -12 -3 1 -11 -5 -18 -13 -6 -7 -18 -11 -26 -8 -10 4 -12
0 -7 -13 6 -17 5 -17 -10 -5 -9 7 -17 19 -17 27 0 7 -4 16 -10 19 -6 3 -7 -1
-4 -9 3 -9 1 -16 -5 -16 -6 0 -11 8 -12 18 0 10 -3 12 -6 5 -2 -7 3 -23 11
-35 9 -13 16 -17 16 -9 0 9 8 5 20 -9 11 -13 20 -18 20 -12 0 7 3 11 8 11 4
-1 14 -1 22 0 12 1 13 3 1 10 -10 6 -5 12 18 24 30 15 37 11 32 -17 -1 -5 5
-16 14 -26 9 -10 15 -21 14 -26 -4 -22 3 -29 26 -30 14 -1 22 2 19 7 -3 5 -12
9 -20 9 -8 0 -14 5 -14 11 0 6 7 8 16 5 9 -3 12 -2 9 5 -4 6 -18 14 -31 20
-22 8 -23 12 -13 30 6 12 7 19 1 15 -12 -7 -25 20 -25 52 0 24 -3 27 -12 12z"/>
<path d="M650 2481 c0 -12 31 -43 37 -37 3 2 -5 14 -16 25 -12 12 -21 17 -21
12z"/>
<path d="M709 2483 c0 -5 -2 -19 -3 -33 -2 -13 4 -31 12 -40 14 -13 15 -12 7
15 -4 17 -7 38 -7 48 1 16 -7 25 -9 10z"/>
<path d="M1339 2480 c-5 -34 -3 -67 3 -64 3 2 9 -2 12 -8 4 -7 3 -2 0 12 -3
14 -6 35 -6 48 0 22 -7 31 -9 12z"/>
<path d="M740 2465 c-9 -11 -7 -19 14 -42 14 -15 26 -23 26 -18 0 6 4 3 10 -5
5 -8 12 -11 17 -7 4 5 2 12 -6 16 -7 5 -12 11 -12 15 1 14 -12 36 -22 36 -7 0
-7 -4 1 -12 7 -7 12 -19 12 -27 0 -11 -6 -9 -20 9 -13 18 -16 28 -8 37 6 7 8
13 5 13 -2 0 -10 -7 -17 -15z"/>
<path d="M822 2458 c13 -9 25 -14 28 -12 2 3 -2 9 -9 13 -11 7 -11 9 0 14 8 2
2 4 -13 3 l-28 -1 22 -17z"/>
<path d="M1165 2470 c-4 -6 0 -10 7 -10 10 0 10 -2 1 -8 -8 -5 -9 -13 -3 -22
7 -10 10 -11 10 -2 0 6 5 12 11 12 5 0 9 -10 7 -22 -2 -16 3 -24 17 -26 16 -3
18 -1 8 9 -7 7 -13 19 -13 26 0 18 -38 54 -45 43z"/>
<path d="M1223 2464 c0 -7 4 -11 9 -8 5 3 15 0 23 -6 8 -7 15 -8 15 -3 0 5
-10 15 -23 20 -19 9 -24 8 -24 -3z"/>
<path d="M1360 2460 c0 -11 5 -20 11 -20 5 0 7 5 4 10 -12 19 11 10 25 -10 18
-26 34 -26 18 -1 -7 11 -22 24 -35 30 -20 9 -23 8 -23 -9z"/>
<path d="M1583 2473 c-7 -3 -13 -11 -13 -20 0 -12 2 -12 16 2 18 17 16 25 -3
18z"/>
<path d="M1930 2450 c36 -32 50 -37 50 -19 0 5 -4 8 -9 4 -6 -3 -13 1 -18 8
-4 8 -19 19 -33 26 -20 10 -18 6 10 -19z"/>
<path d="M1990 2460 c0 -11 5 -20 11 -20 5 0 7 5 4 10 -3 6 -2 10 3 10 6 0 13
-7 16 -16 9 -23 8 -26 -6 -18 -10 6 -10 4 0 -7 9 -10 15 -10 24 -1 13 13 -2
36 -34 53 -15 8 -18 6 -18 -11z"/>
<path d="M914 2435 c0 -24 3 -30 11 -22 7 6 10 19 7 29 -8 31 -17 27 -18 -7z"/>
<path d="M1080 2459 c0 -5 5 -7 10 -4 14 9 12 -8 -2 -24 -10 -11 -10 -13 0 -7
7 4 12 1 12 -7 0 -8 7 -20 15 -27 13 -10 15 -9 15 9 0 11 4 21 10 21 5 0 7 7
3 16 -5 13 -9 10 -20 -12 -9 -20 -12 -22 -9 -8 4 24 -10 54 -24 54 -6 0 -10
-5 -10 -11z"/>
<path d="M890 2451 c0 -5 -8 -12 -17 -14 -17 -4 -17 -5 0 -6 10 0 16 -5 12
-10 -3 -5 0 -13 6 -17 8 -5 10 -1 7 14 -3 12 -1 23 5 25 8 2 7 6 -1 11 -7 4
-12 3 -12 -3z"/>
<path d="M940 2454 c0 -3 9 -14 20 -26 22 -24 26 -38 10 -38 -5 0 -10 5 -10
12 0 6 -6 4 -13 -7 -8 -10 -19 -15 -25 -11 -6 3 -13 2 -17 -4 -8 -12 -45 10
-45 27 0 6 -4 15 -10 18 -15 10 1 -28 18 -42 9 -7 13 -16 9 -19 -9 -9 -37 15
-37 32 0 8 -5 14 -11 14 -6 0 -9 7 -6 15 4 8 3 16 -1 19 -4 2 -8 -13 -8 -35 0
-22 2 -36 5 -32 3 5 16 -2 28 -15 l23 -22 -25 4 c-22 4 -23 2 -12 -14 7 -12
14 -15 18 -8 4 6 12 7 18 4 6 -4 11 -4 10 1 -4 24 4 34 11 13 l8 -25 1 26 c1
20 7 28 26 31 14 3 25 1 25 -6 0 -7 3 -7 8 1 11 17 34 0 37 -28 1 -13 3 -30 4
-36 0 -7 6 -13 11 -13 7 0 7 6 1 18 -5 10 -8 30 -7 45 2 14 0 26 -3 25 -20 -2
-22 5 -8 26 14 21 15 26 1 36 -12 11 -13 10 -8 -4 3 -9 1 -16 -5 -16 -6 0 -11
6 -11 14 0 8 -7 16 -15 20 -8 3 -15 3 -15 0z"/>
<path d="M1016 2448 c3 -4 11 -5 18 -2 8 3 16 -2 19 -13 4 -14 5 -14 6 4 1 18
-4 22 -23 21 -14 -1 -22 -6 -20 -10z"/>
<path d="M1807 2453 c-4 -3 -7 -13 -7 -22 0 -14 2 -14 10 -1 9 13 11 13 20 0
5 -8 10 -10 10 -4 0 15 -25 36 -33 27z"/>
<path d="M1230 2428 c0 -7 5 -20 10 -28 9 -13 11 -13 20 0 15 24 12 34 -7 19
-15 -12 -16 -12 -10 4 3 9 2 17 -3 17 -6 0 -10 -6 -10 -12z"/>
<path d="M1443 2427 c-3 -5 -2 -11 1 -14 3 -4 6 -2 6 4 0 6 8 9 19 6 10 -3 21
-1 24 4 3 4 -6 8 -20 8 -14 0 -27 -4 -30 -8z"/>
<path d="M1864 2425 c2 -11 7 -29 12 -39 5 -13 4 -17 -4 -12 -8 5 -8 -1 -1
-24 6 -16 15 -33 20 -36 5 -3 6 3 2 13 -6 17 -5 17 15 -1 12 -10 20 -22 18
-25 -2 -3 2 -17 10 -31 7 -14 13 -21 14 -17 0 5 -4 17 -10 27 -7 13 -6 19 5
24 8 3 15 0 15 -7 0 -8 4 -6 10 3 8 13 10 12 10 -2 0 -10 4 -18 8 -18 4 0 8 8
8 19 0 15 -7 18 -31 15 l-31 -3 2 59 c1 43 -2 60 -13 64 -9 4 -11 2 -7 -5 11
-19 12 -79 1 -72 -6 3 -7 1 -3 -5 4 -7 -1 -10 -14 -9 -11 1 -20 7 -20 15 0 7
5 10 11 6 6 -3 4 7 -4 22 -8 16 -17 36 -21 44 -4 9 -5 7 -2 -5z"/>
<path d="M2105 2431 c-11 -5 -24 -6 -29 -3 -4 2 -5 -6 -1 -19 7 -21 6 -22 -9
-10 -20 17 -21 5 -2 -15 11 -11 16 -11 19 -1 4 9 6 9 6 0 1 -7 11 -17 24 -23
19 -9 20 -9 6 2 -9 7 -19 23 -23 36 -7 21 5 29 37 23 5 -1 6 3 2 9 -3 5 -7 10
-8 9 -1 0 -11 -4 -22 -8z"/>
<path d="M1027 2404 c4 -12 3 -15 -5 -10 -8 5 -10 1 -5 -10 4 -12 8 -14 11 -6
3 10 7 10 18 1 12 -10 13 -8 6 12 -5 12 -14 25 -20 27 -8 2 -10 -3 -5 -14z"/>
<path d="M729 2390 c-14 -15 -13 -17 9 -28 20 -9 22 -9 11 4 -19 23 -5 26 20
3 17 -16 20 -24 10 -35 -6 -7 -8 -21 -5 -30 5 -12 2 -15 -9 -10 -9 3 -14 2
-11 -3 3 -5 17 -8 32 -8 14 0 22 2 17 6 -5 3 -9 25 -8 49 0 26 -5 42 -12 42
-6 0 -18 6 -25 13 -11 10 -16 10 -29 -3z"/>
<path d="M1148 2403 c6 -2 9 -10 5 -16 -3 -7 -3 -9 2 -5 4 4 15 2 23 -5 13
-11 14 -9 1 11 -8 12 -21 22 -29 21 -10 0 -11 -2 -2 -6z"/>
<path d="M1790 2391 c14 -11 30 -21 36 -21 14 0 5 -60 -9 -60 -6 0 -2 -6 9
-14 22 -16 44 -4 43 23 0 10 -4 7 -11 -9 l-11 -25 -5 24 c-2 13 2 28 10 32 10
7 10 9 0 9 -7 0 -11 4 -8 9 3 5 -13 19 -37 30 -40 21 -41 21 -17 2z"/>
<path d="M1981 2403 c3 -19 -2 -25 -14 -15 -10 8 -13 6 -13 -9 0 -21 11 -25
21 -8 5 6 11 4 19 -7 10 -13 15 -14 21 -4 11 17 25 -6 25 -42 0 -15 5 -30 10
-33 16 -10 12 -28 -5 -21 -8 3 -15 1 -15 -5 0 -6 -7 -6 -20 1 -17 9 -20 8 -20
-10 0 -11 5 -20 11 -20 5 0 7 5 4 10 -10 16 11 12 25 -5 12 -14 7 -19 -13 -16
-5 1 -6 -3 -2 -9 4 -6 15 -8 26 -5 14 5 17 2 13 -8 -2 -7 3 -20 12 -28 16 -13
16 -12 4 10 -11 22 -11 23 6 17 11 -4 3 7 -16 23 -26 22 -30 30 -17 31 30 0
32 -1 29 -18 -2 -13 -1 -14 6 -4 10 14 -6 62 -20 62 -13 0 -9 45 5 59 6 7 8
12 2 11 -22 -5 -29 1 -15 11 13 9 12 10 -2 5 -10 -3 -23 2 -30 12 -13 18 -39
28 -37 15z"/>
<path d="M647 2387 c4 -7 8 -18 9 -25 2 -8 6 -17 10 -20 4 -4 4 1 1 11 -4 9
-2 17 3 17 18 0 10 18 -10 23 -14 3 -18 1 -13 -6z"/>
<path d="M686 2364 c-8 -21 -8 -49 1 -41 7 7 14 57 8 57 -1 0 -6 -7 -9 -16z"/>
<path d="M726 2343 c2 -7 -3 -16 -11 -20 -10 -6 -11 -13 -5 -23 8 -12 10 -11
10 5 0 17 2 18 11 5 9 -12 10 -12 5 4 -5 13 -2 17 9 12 8 -3 15 -1 15 4 0 6
-6 10 -14 10 -8 0 -16 3 -19 8 -2 4 -2 1 -1 -5z"/>
<path d="M1030 2349 c0 -5 9 -9 19 -9 11 0 30 -15 42 -32 13 -18 27 -34 31
-36 4 -2 8 -10 8 -17 0 -7 7 -15 15 -19 8 -3 15 -14 15 -24 0 -10 4 -22 9 -27
10 -10 32 -127 26 -133 -5 -6 -80 -21 -132 -28 -26 -3 -50 -7 -52 -10 -2 -2
-9 0 -16 4 -6 4 -4 0 5 -8 20 -19 23 -60 5 -60 -27 0 -146 79 -188 124 -20 22
-38 27 -57 16 -9 -5 -9 -9 -1 -14 6 -4 11 -2 11 5 0 8 4 8 15 -1 13 -11 15
-57 15 -324 0 -171 0 -315 0 -320 0 -4 22 14 48 40 68 68 129 114 151 114 6 0
11 -24 13 -52 l3 -53 95 -5 95 -5 -3 -45 c-1 -25 -7 -54 -11 -65 -5 -11 -14
-35 -21 -52 -7 -18 -17 -33 -22 -33 -5 0 -12 -8 -15 -17 -8 -20 -83 -93 -95
-93 -4 0 -8 -6 -8 -12 0 -12 154 -14 663 -8 9 0 17 5 17 10 0 6 -5 10 -11 10
-6 0 -26 17 -45 38 -26 28 -33 43 -29 62 4 16 2 20 -3 12 -7 -10 -11 -10 -20
1 -18 21 -42 107 -42 150 l0 37 84 0 c86 0 96 5 96 47 0 17 20 39 35 38 17 -1
105 -48 105 -57 0 -4 5 -8 10 -8 17 0 70 -59 70 -78 0 -14 2 -14 14 3 10 16
13 90 14 358 l1 337 -29 -22 c-16 -13 -29 -27 -29 -31 -1 -9 -27 -37 -35 -37
-3 0 -17 -11 -32 -25 -15 -14 -32 -25 -38 -25 -6 0 -23 -6 -38 -14 -32 -17
-48 -5 -48 35 0 25 -4 27 -47 32 -104 12 -113 16 -113 53 0 19 11 57 25 86 14
28 25 56 25 61 0 4 11 23 25 41 14 18 25 36 25 40 0 4 12 18 28 31 l27 25
-352 -1 c-194 -1 -353 -6 -353 -10z m615 -29 c4 -7 -7 -27 -28 -48 -52 -54
-77 -107 -86 -179 l-7 -64 44 -19 c25 -11 48 -20 53 -20 12 0 20 -76 16 -150
-2 -36 -5 -104 -5 -152 l-2 -88 -29 0 c-17 0 -33 5 -36 11 -4 6 -39 9 -86 8
-44 -1 -82 1 -85 4 -4 4 -6 53 -5 109 2 57 3 140 4 184 2 98 17 121 80 126 38
3 40 4 24 19 -9 9 -13 19 -10 23 4 3 -35 6 -85 6 -123 0 -119 18 6 23 l97 3
-102 2 c-58 1 -103 6 -103 12 0 5 45 11 103 12 103 3 135 17 63 29 -20 3 -33
3 -29 -2 4 -4 22 -9 38 -12 17 -2 -16 -5 -72 -6 -63 0 -103 3 -103 9 0 6 15
10 33 11 31 1 31 1 7 9 -17 6 8 8 72 7 54 0 100 2 104 6 4 4 -38 7 -94 7 -146
0 -158 14 -17 20 l120 6 -127 2 c-79 1 -129 6 -134 13 -4 8 34 9 139 4 99 -4
147 -3 152 4 4 8 -27 12 -97 13 -57 0 -110 0 -118 0 -26 -3 -112 10 -106 15 3
3 82 5 176 4 110 -2 170 1 170 8 0 12 -389 20 -397 8 -3 -5 5 -18 17 -29 34
-31 60 -103 60 -164 0 -70 -15 -70 -24 0 -8 72 -28 115 -75 166 -22 24 -38 46
-36 50 2 3 118 7 258 9 186 2 257 -1 262 -9z m-242 -247 c-18 -2 -48 -2 -65 0
-18 2 -4 4 32 4 36 0 50 -2 33 -4z m-5 -30 c-10 -2 -28 -2 -40 0 -13 2 -5 4
17 4 22 1 32 -1 23 -4z m-63 -20 c12 -30 15 -83 4 -83 -6 0 -7 -5 -2 -12 4 -7
9 -73 9 -147 1 -123 0 -134 -17 -138 -11 -3 -19 -9 -19 -14 0 -5 -14 -9 -30
-9 -17 0 -47 -7 -67 -15 -19 -8 -45 -15 -57 -15 -22 0 -22 2 -23 204 l-2 203
42 13 c23 8 46 17 52 22 5 4 30 8 56 8 35 0 49 -4 54 -17z m616 -165 c1 -344
-1 -366 -34 -334 -9 9 -20 16 -26 16 -6 0 -11 5 -11 10 0 6 -16 18 -35 27 -49
23 -43 47 13 51 23 2 42 7 42 12 0 5 -16 6 -37 3 -33 -6 -36 -4 -31 15 4 12 2
22 -3 22 -5 0 -9 4 -9 9 0 5 20 6 45 3 30 -3 45 -1 45 7 0 10 -23 13 -127 15
-24 1 -42 6 -40 11 1 6 36 9 87 6 89 -3 107 4 30 12 -25 3 -51 6 -57 6 -7 1
-13 5 -13 10 0 5 25 9 55 9 31 -1 58 2 62 6 3 3 -30 6 -75 6 -55 0 -82 4 -82
11 0 8 21 10 74 5 48 -4 77 -3 81 4 4 6 -21 10 -74 10 -54 0 -81 4 -81 11 0 9
22 10 75 6 75 -5 108 8 38 16 l-38 4 43 1 c50 2 57 22 7 22 -44 0 -46 20 -2
21 l32 1 -37 16 c-38 17 -49 32 -25 32 6 1 30 19 52 40 22 22 43 40 48 40 4 0
7 -73 8 -162z m-1083 132 c12 -11 25 -20 31 -20 5 0 11 -7 15 -15 3 -8 12 -15
19 -15 19 0 38 -23 29 -36 -4 -6 -20 -10 -37 -10 -23 1 -30 6 -30 21 0 11 -8
21 -17 23 -17 3 -18 -10 -18 -172 0 -97 2 -176 5 -176 3 0 14 9 25 20 14 14
18 27 14 50 -6 29 -5 30 27 30 l33 0 -24 -22 -24 -23 28 -5 c41 -7 42 -23 2
-42 -18 -9 -49 -30 -69 -47 -19 -17 -37 -31 -41 -31 -3 0 -6 110 -6 245 0 135
4 245 8 245 5 0 18 -9 30 -20z m241 -44 c-1 -63 -1 -192 1 -288 1 -74 -1 -88
-14 -88 -13 0 -16 27 -19 203 l-2 202 -3 -217 -2 -218 144 0 c116 0 146 3 156
15 12 14 15 14 30 0 13 -12 44 -15 148 -15 l132 0 2 143 c2 78 3 179 2 225 0
60 4 82 13 82 10 0 13 -50 13 -235 l0 -235 -42 -2 c-24 -1 -86 0 -138 1 -78 3
-98 0 -109 -13 -17 -20 -55 -21 -71 -1 -10 12 -41 15 -156 15 -130 0 -144 2
-145 18 -1 25 2 196 6 282 2 41 4 96 4 121 1 43 3 47 26 47 23 0 25 -4 24 -42z
m712 -72 c-6 -25 -23 -33 -29 -15 -2 6 1 11 7 11 6 0 11 7 11 15 0 9 -6 12
-15 9 -8 -4 -15 -1 -15 6 0 6 4 9 9 5 5 -3 13 0 17 6 11 18 23 -10 15 -37z
m-61 15 c0 -24 -23 -21 -28 4 -2 10 3 17 12 17 10 0 16 -9 16 -21z m-740 -9
c0 -5 -12 -10 -26 -10 -14 0 -23 4 -19 10 3 6 15 10 26 10 10 0 19 -4 19 -10z
m-60 -32 c0 -4 -13 -8 -30 -8 -16 0 -30 4 -30 9 0 5 14 9 30 9 17 -1 30 -5 30
-10z m-2 -25 c-43 -7 -33 -23 11 -19 22 2 45 -1 53 -5 8 -5 -15 -9 -57 -9 -64
0 -71 2 -71 20 0 17 6 20 46 19 29 -1 35 -3 18 -6z m62 -51 c0 -5 -29 -9 -65
-10 -36 0 -65 3 -65 9 0 5 29 9 65 9 36 0 65 -4 65 -8z m646 -24 c-2 -18 -4
-42 -5 -53 -1 -16 -3 -17 -10 -5 -6 8 -7 19 -3 24 3 6 5 23 4 38 -1 15 2 28 8
28 5 0 8 -15 6 -32z m-656 -8 c-20 -13 -110 -13 -110 0 0 6 27 10 63 10 44 0
58 -3 47 -10z m-50 -29 c0 -5 -11 -8 -25 -8 -14 0 -28 3 -31 8 -3 5 9 9 25 9
17 0 31 -4 31 -9z m75 -41 c0 -18 -43 -26 -57 -12 -16 16 2 33 30 30 16 -2 27
-9 27 -18z m718 8 c4 -10 7 -10 18 0 24 22 39 14 39 -23 0 -28 -4 -35 -19 -35
-11 0 -22 9 -26 19 -3 12 -12 18 -20 15 -9 -4 -13 1 -12 15 1 23 13 28 20 9z
m-85 -48 c0 -38 -10 -51 -23 -30 -3 6 -3 16 2 23 4 6 6 20 5 30 -2 9 1 17 7
17 5 0 9 -18 9 -40z m95 -5 c7 -16 -8 -29 -23 -20 -15 9 -12 35 4 35 8 0 16
-7 19 -15z m-403 -30 c-7 -8 -22 -15 -34 -15 -21 1 -21 1 -2 15 27 21 53 20
36 0z m150 -127 c1 -85 48 -206 99 -252 12 -11 21 -23 21 -28 0 -4 -112 -7
-250 -6 -164 1 -250 5 -250 12 0 6 10 20 23 31 49 45 76 107 79 184 2 41 8 66
16 69 9 3 12 -13 12 -60 0 -65 -26 -156 -54 -187 -13 -15 0 -16 170 -16 116 0
184 4 184 10 0 6 -55 9 -150 7 -100 -2 -150 0 -150 7 0 6 5 11 11 11 5 0 7 5
4 10 -4 6 40 11 122 12 l128 2 -117 3 c-65 2 -118 7 -118 11 0 4 50 6 110 4
76 -3 110 -1 110 7 0 7 -35 11 -104 11 -68 0 -107 4 -112 12 -5 8 21 10 99 6
60 -3 107 -2 107 3 0 5 -45 9 -100 9 -55 0 -100 4 -100 9 0 5 39 10 86 10 48
0 89 3 92 6 3 3 -34 5 -81 5 -80 0 -87 2 -87 20 0 18 7 20 87 20 47 0 84 3 81
6 -4 3 -43 6 -87 6 -106 0 -105 17 2 20 l82 2 -82 3 c-106 5 -109 23 -4 23 61
0 80 3 85 15 11 29 36 17 36 -17z"/>
<path d="M1873 1669 c14 -8 22 -8 30 0 8 8 3 11 -18 11 -26 -1 -28 -2 -12 -11z"/>
<path d="M1325 1250 c23 -10 211 -13 202 -4 -4 4 -55 8 -114 9 -64 2 -100 0
-88 -5z"/>
<path d="M2081 2357 c-1 -4 6 -19 15 -32 17 -26 16 -29 -10 -19 -9 3 -13 11
-9 17 4 6 1 7 -7 2 -10 -6 -10 -10 2 -19 8 -6 13 -16 11 -23 -2 -6 1 -15 8
-19 8 -5 9 -3 5 5 -5 7 0 18 10 26 11 8 15 15 10 15 -5 0 -2 8 5 17 10 11 10
14 2 9 -8 -4 -13 -2 -13 4 0 6 -4 9 -9 6 -5 -4 -12 0 -14 6 -3 7 -6 9 -6 5z"/>
<path d="M930 2340 c0 -4 9 -10 20 -13 11 -3 20 -2 20 3 0 4 -9 10 -20 13 -11
3 -20 2 -20 -3z"/>
<path d="M814 2322 c12 -20 17 -62 7 -62 -4 0 -8 -8 -8 -17 0 -34 -3 -43 -15
-43 -6 0 -8 3 -5 6 3 4 2 15 -4 25 -7 13 -6 19 1 19 6 0 8 5 4 11 -4 8 -9 7
-14 -2 -6 -9 -12 -10 -22 -2 -7 5 -21 13 -30 16 -16 5 -16 4 -5 -15 6 -11 25
-35 40 -52 l28 -31 20 24 c10 12 16 28 12 34 -4 6 0 8 10 4 10 -3 17 -2 17 2
0 5 -6 12 -12 14 -10 4 -9 6 1 6 11 1 11 4 0 18 -12 14 -12 16 1 11 8 -2 21
-15 27 -29 7 -13 13 -19 13 -14 0 6 8 1 17 -10 13 -16 15 -17 10 -2 -4 9 -1
17 5 17 7 0 8 -12 4 -32 -4 -24 -3 -29 4 -18 14 22 12 46 -5 60 -11 9 -15 9
-15 1 0 -7 -5 -9 -10 -6 -6 4 -7 11 -4 17 4 6 3 8 -3 5 -5 -4 -25 8 -43 26
-19 18 -30 26 -26 19z m-48 -80 c6 -4 14 -18 17 -32 6 -24 5 -24 -8 -5 -8 11
-19 26 -25 33 -12 13 -2 16 16 4z"/>
<path d="M917 2313 c-4 -7 0 -16 11 -22 15 -8 18 -6 19 12 2 15 0 18 -6 8 -7
-11 -9 -11 -13 0 -3 9 -6 10 -11 2z"/>
<path d="M1874 2289 c-3 -6 -1 -16 5 -22 9 -9 11 -7 6 8 -6 17 -4 16 13 -4 11
-14 18 -32 15 -40 -4 -14 -3 -14 5 -1 8 10 8 18 0 27 -6 7 -7 13 -3 13 4 0 2
7 -5 15 -15 18 -26 19 -36 4z"/>
<path d="M651 2270 c12 -24 41 -52 47 -45 2 1 -11 18 -29 36 -26 28 -29 30
-18 9z"/>
<path d="M976 2277 c7 -20 43 -42 61 -39 6 1 13 -5 15 -15 3 -15 5 -14 10 5 6
21 3 23 -20 20 -20 -2 -26 1 -24 12 2 8 0 12 -4 7 -4 -4 -16 1 -26 10 -18 16
-18 16 -12 0z"/>
<path d="M1753 2272 c-1 -12 7 -17 25 -19 27 -1 55 -29 45 -46 -3 -5 1 -13 8
-18 21 -13 36 -10 19 4 -8 7 -16 19 -18 27 -3 15 -52 66 -52 54 0 -3 -6 -2
-13 4 -10 8 -13 7 -14 -6z"/>
<path d="M2110 2272 c0 -4 5 -13 11 -19 7 -7 6 -15 -5 -26 -20 -19 -21 -34 -2
-18 11 9 15 9 19 -1 3 -7 3 1 2 17 -2 17 -4 32 -5 35 -2 3 -2 8 -1 13 0 4 -3
7 -9 7 -5 0 -10 -4 -10 -8z"/>
<path d="M1857 2237 c2 -18 8 -36 13 -40 4 -5 5 3 3 17 -4 21 -2 25 11 20 24
-9 19 1 -8 19 -24 16 -24 16 -19 -16z"/>
<path d="M710 2228 c0 -15 20 -48 20 -34 0 6 7 1 15 -10 8 -10 15 -15 15 -10
0 4 -11 21 -25 38 -14 16 -25 24 -25 16z"/>
<path d="M986 2225 c5 -11 2 -14 -12 -8 -18 6 -18 6 0 -15 10 -12 22 -20 26
-19 5 1 16 -7 25 -18 9 -11 13 -13 9 -5 -4 8 -14 23 -23 34 -9 10 -15 20 -13
22 6 10 1 24 -8 24 -5 0 -7 -7 -4 -15z"/>
<path d="M1725 2230 c-4 -6 -11 -8 -16 -5 -5 4 -9 1 -9 -4 0 -6 5 -11 11 -11
5 0 7 -5 4 -10 -9 -14 4 -52 16 -45 5 4 9 1 9 -6 0 -7 3 -9 7 -5 5 4 0 13 -10
21 -19 14 -17 62 3 57 6 -1 9 2 5 8 -8 13 -12 13 -20 0z"/>
<path d="M860 2219 c0 -5 -4 -7 -10 -4 -6 3 -7 -1 -3 -10 4 -12 8 -13 13 -5 4
7 14 16 21 21 11 7 10 9 -3 9 -10 0 -18 -5 -18 -11z"/>
<path d="M1086 2206 c-4 -17 -11 -24 -19 -20 -7 4 0 -5 16 -21 15 -15 31 -25
35 -21 4 4 -1 12 -11 17 -9 6 -17 17 -17 25 0 8 5 12 10 9 12 -8 13 5 1 23 -6
10 -10 7 -15 -12z"/>
<path d="M1752 2209 c-10 -16 -11 -24 -2 -33 9 -8 11 -7 8 4 -2 8 2 14 8 13 7
-1 10 6 7 17 -6 24 -5 25 -21 -1z"/>
<path d="M1967 2217 c-3 -9 -2 -17 4 -17 6 0 7 -5 4 -10 -4 -6 -10 -8 -14 -6
-4 3 -8 -4 -8 -15 -1 -10 3 -19 8 -19 6 0 8 4 4 9 -3 5 -1 12 4 16 6 3 15 -4
21 -15 6 -11 16 -20 22 -20 6 0 1 11 -11 24 -14 15 -19 26 -12 31 6 3 11 3 11
-2 1 -12 40 -57 45 -51 3 2 -9 20 -25 38 -17 19 -30 29 -31 24 0 -5 -4 0 -8
10 -7 18 -8 18 -14 3z"/>
<path d="M670 2215 c0 -13 20 -35 32 -35 4 0 8 5 8 12 0 6 -3 8 -7 5 -3 -4
-12 1 -19 11 -7 9 -14 12 -14 7z"/>
<path d="M1020 2216 c0 -3 9 -20 21 -38 17 -27 19 -28 13 -8 -6 22 -34 59 -34
46z"/>
<path d="M1660 2198 c6 -7 10 -19 10 -27 0 -11 -4 -10 -16 5 -14 18 -15 18 -4
-4 6 -12 15 -20 20 -17 4 3 11 -1 14 -7 3 -7 3 -2 0 12 -3 14 -12 31 -20 38
-9 7 -10 8 -4 0z"/>
<path d="M1918 2187 c4 -14 7 -16 13 -5 12 19 11 25 -5 25 -8 0 -11 -8 -8 -20z"/>
<path d="M1790 2193 c0 -12 28 -38 34 -32 2 2 -5 13 -15 23 -11 11 -19 15 -19
9z"/>
<path d="M650 2182 c0 -5 7 -13 16 -16 10 -4 14 -1 12 6 -5 15 -28 23 -28 10z"/>
<path d="M830 2182 c0 -7 -4 -10 -10 -7 -5 3 -10 2 -10 -3 0 -5 9 -12 21 -15
12 -3 18 -10 14 -16 -3 -6 -11 -8 -17 -5 -6 4 -8 2 -4 -4 3 -5 0 -13 -6 -16
-7 -2 -2 -3 12 -1 14 1 24 8 23 14 -2 6 3 11 10 11 8 0 9 3 1 8 -6 4 -16 16
-22 27 -6 11 -12 14 -12 7z"/>
<path d="M870 2184 c0 -5 6 -19 14 -30 14 -18 15 -18 21 -2 4 10 12 15 19 11
6 -4 16 -8 21 -8 6 0 9 -10 7 -22 -2 -12 2 -24 7 -27 6 -4 8 6 6 29 -5 37 7
46 24 18 9 -15 10 -16 11 -2 0 20 -46 43 -56 28 -3 -6 -12 -8 -20 -5 -8 3 -18
-2 -21 -10 -5 -14 -8 -12 -19 7 -7 13 -13 19 -14 13z"/>
<path d="M1881 2172 c-1 -7 -7 -10 -13 -7 -7 4 -5 0 5 -8 19 -16 24 -32 5 -21
-7 4 -8 3 -4 -4 4 -7 16 -12 26 -12 10 0 21 -6 23 -12 4 -10 6 -9 6 1 1 11 4
11 19 0 15 -13 16 -12 3 3 -7 10 -16 16 -20 14 -11 -7 -25 6 -38 34 -6 14 -12
19 -12 12z"/>
<path d="M2094 2156 c5 -21 4 -26 -6 -20 -7 4 -5 -1 4 -12 15 -15 20 -16 30
-5 10 11 10 12 1 7 -7 -4 -13 -3 -13 3 0 5 4 11 8 13 4 2 -1 12 -12 22 -19 19
-19 18 -12 -8z"/>
<path d="M728 2158 c0 -7 -1 -20 -2 -28 -1 -8 -9 -16 -20 -18 -11 -3 -16 0
-12 7 4 6 2 11 -3 11 -6 0 -11 -5 -11 -10 0 -7 -8 -7 -22 1 -21 11 -22 10 -7
-6 9 -9 22 -17 30 -18 8 -2 20 -6 27 -10 8 -5 12 -2 12 8 0 8 10 20 23 25 17
7 18 9 5 9 -10 1 -18 5 -18 11 0 5 8 6 18 3 15 -6 15 -5 3 10 -16 20 -20 21
-23 5z"/>
<path d="M1770 2161 c0 -5 7 -12 16 -15 24 -9 27 -7 10 9 -17 17 -26 19 -26 6z"/>
<path d="M1700 2152 c0 -4 5 -13 11 -19 8 -8 8 -13 0 -17 -6 -4 -11 -3 -11 2
0 14 -40 22 -41 9 0 -7 -4 -3 -9 8 -6 15 -8 11 -7 -17 1 -20 5 -34 10 -31 4 2
5 8 2 13 -6 10 24 22 36 14 6 -4 6 -11 -1 -19 -9 -10 -9 -19 0 -32 11 -17 11
-17 5 1 -3 12 2 26 14 37 18 17 21 18 29 2 9 -15 12 -15 36 4 21 17 23 22 10
27 -20 8 -24 8 -23 -1 5 -29 -5 -30 -31 -3 -16 17 -30 27 -30 22z"/>
<path d="M1837 2154 c-4 -4 -7 -17 -7 -30 0 -12 -3 -24 -7 -26 -5 -1 3 -14 16
-27 13 -13 21 -17 18 -8 -3 8 0 21 6 28 10 11 9 11 -5 0 -16 -12 -18 -11 -18
12 0 14 6 27 13 30 8 3 9 8 1 16 -6 6 -13 8 -17 5z"/>
<path d="M1050 2130 c0 -5 9 -14 20 -20 11 -6 20 -7 20 -3 0 5 -9 14 -20 21
-11 7 -20 8 -20 2z"/>
<path d="M876 2122 c-2 -4 4 -9 15 -9 10 -1 19 2 19 8 0 11 -27 12 -34 1z"/>
<path d="M993 2116 c4 -10 7 -22 7 -27 0 -5 4 -9 9 -9 12 0 2 38 -12 47 -7 4
-8 0 -4 -11z"/>
<path d="M2037 2124 c-7 -13 17 -64 41 -84 9 -8 17 -21 17 -29 0 -8 10 -16 23
-17 12 -2 22 1 22 6 0 6 -3 9 -7 9 -22 -4 -32 3 -27 16 4 10 0 15 -11 15 -9 0
-19 9 -22 20 -3 11 -10 20 -15 20 -5 0 -7 3 -5 8 7 11 -9 47 -16 36z"/>
<path d="M2014 2090 c0 -11 4 -20 8 -20 4 0 8 -7 8 -16 0 -10 -5 -12 -12 -7
-7 4 -5 -6 6 -21 16 -25 16 -28 2 -23 -9 4 -16 2 -16 -4 0 -7 10 -9 25 -5 19
5 23 3 19 -9 -3 -8 -10 -12 -15 -9 -5 3 -6 -3 -2 -13 6 -16 4 -16 -18 2 -18
15 -16 11 5 -13 26 -28 27 -37 4 -34 -3 1 -9 -5 -12 -13 -3 -9 0 -12 10 -8 9
3 14 -1 14 -11 0 -9 9 -26 20 -38 10 -12 18 -24 15 -27 -2 -4 5 -7 14 -7 15 0
13 5 -10 29 -28 27 -40 77 -19 77 6 0 10 5 10 11 0 5 -4 8 -9 4 -14 -8 -21 9
-10 25 8 13 10 13 19 0 5 -8 10 -10 10 -4 0 5 -6 16 -12 23 -11 11 -10 13 4 8
12 -4 15 -2 11 8 -3 8 -9 13 -13 10 -4 -2 -15 4 -25 15 -10 11 -13 20 -7 20 9
0 9 7 0 28 -17 38 -24 45 -24 22z"/>
<path d="M930 2080 c29 -23 16 -39 -27 -34 -13 1 -22 0 -18 -4 3 -3 17 -6 31
-7 14 0 34 -12 50 -30 23 -27 24 -27 9 -3 -9 14 -15 32 -15 40 4 27 -12 54
-33 55 -21 2 -21 1 3 -17z"/>
<path d="M976 2092 c-3 -5 -2 -19 1 -31 6 -24 34 -25 40 -1 4 12 2 12 -5 2 -7
-10 -11 -10 -21 2 -7 8 -10 20 -6 26 3 5 4 10 1 10 -3 0 -7 -4 -10 -8z"/>
<path d="M2096 2092 c-2 -4 2 -15 9 -25 12 -17 13 -16 11 7 -1 25 -10 34 -20
18z"/>
<path d="M1030 2072 c0 -5 7 -13 16 -16 22 -8 24 -8 24 6 0 6 -3 8 -7 5 -3 -4
-12 -2 -20 4 -8 7 -13 8 -13 1z"/>
<path d="M1754 2060 c0 -10 4 -16 8 -14 5 3 11 -2 14 -11 6 -14 10 -11 25 12
13 20 19 23 19 11 0 -9 -4 -20 -10 -23 -5 -3 -10 -14 -9 -23 0 -13 3 -12 11 6
6 12 15 22 20 22 5 0 3 10 -3 22 -11 21 -12 21 -25 3 -9 -12 -14 -14 -14 -5 0
7 -3 10 -7 7 -3 -4 -11 -3 -17 3 -8 6 -12 3 -12 -10z"/>
<path d="M714 2062 c8 -14 -4 -43 -15 -36 -5 3 -6 11 -3 17 5 8 3 8 -6 0 -12
-11 -11 -15 6 -28 27 -20 33 -19 26 8 -5 21 -5 21 12 5 20 -21 34 -24 17 -5
-6 8 -8 16 -5 20 3 3 -4 11 -16 17 -12 7 -20 7 -16 2z"/>
<path d="M2087 1948 c-8 -31 17 -58 35 -39 10 11 10 12 1 7 -7 -4 -13 -2 -13
4 0 6 -4 8 -10 5 -5 -3 -10 -2 -10 4 0 5 4 11 10 13 5 2 6 9 1 16 -6 10 -10 8
-14 -10z"/>
<path d="M717 1954 c7 -3 9 -13 6 -22 -6 -14 -5 -15 9 -2 19 17 14 30 -10 29
-10 0 -12 -3 -5 -5z"/>
<path d="M680 1910 c0 -6 -4 -9 -9 -6 -5 3 -11 0 -14 -8 -4 -10 3 -12 24 -10
18 2 29 -1 29 -9 0 -8 4 -7 10 3 5 8 10 20 10 25 0 6 -4 4 -9 -3 -6 -11 -11
-10 -25 3 -9 9 -16 11 -16 5z"/>
<path d="M2070 1902 c0 -5 7 -15 15 -22 13 -11 18 -11 28 0 8 9 9 11 0 6 -6
-3 -19 1 -27 10 -9 8 -16 11 -16 6z"/>
<path d="M654 1847 c3 -10 6 -21 6 -23 0 -2 5 -4 12 -4 7 0 23 -12 35 -27 14
-15 23 -20 23 -12 0 17 -15 41 -24 40 -18 -3 -19 1 -3 10 9 5 17 15 17 20 0 6
-7 3 -16 -5 -20 -21 -30 -20 -44 2 -11 16 -11 16 -6 -1z"/>
<path d="M2022 1825 c8 -11 13 -27 10 -35 -4 -12 -2 -13 9 -2 11 10 9 16 -11
35 -19 17 -21 18 -8 2z"/>
<path d="M2122 1815 c-4 -9 -18 -17 -30 -18 -12 -1 -22 -2 -22 -3 0 -13 35
-64 48 -68 15 -5 15 -5 1 7 -18 14 -38 63 -21 53 6 -3 13 -2 17 4 4 6 10 8 14
6 3 -3 7 4 7 15 0 23 -2 24 -14 4z"/>
<path d="M728 1759 c-15 -16 -15 -17 4 -22 12 -4 17 -10 13 -17 -6 -9 -9 -9
-15 0 -5 9 -9 9 -14 1 -4 -6 -1 -11 6 -11 9 -1 8 -5 -4 -13 -11 -9 -14 -18 -7
-28 7 -11 9 -10 9 6 0 17 2 18 11 5 9 -12 10 -12 5 4 -5 13 -2 17 9 12 16 -6
17 18 1 43 -5 8 -4 16 4 21 7 4 8 10 4 12 -5 3 -16 -3 -26 -13z"/>
<path d="M2010 1746 c0 -10 4 -15 9 -12 11 7 21 -17 21 -49 0 -13 5 -27 10
-30 16 -10 12 -28 -5 -21 -8 3 -15 1 -15 -5 0 -6 -5 -7 -11 -3 -6 3 -3 -6 7
-22 17 -26 18 -27 2 -21 -15 5 -16 4 -5 -14 10 -16 13 -17 15 -4 2 8 7 15 12
15 5 0 7 -7 4 -15 -4 -8 -1 -15 6 -15 6 0 8 5 4 12 -5 8 -1 9 12 5 18 -7 18
-6 -1 8 -47 34 -49 38 -29 46 10 3 22 5 26 3 3 -2 4 5 1 17 -4 12 0 25 8 30
11 7 11 9 1 9 -7 0 -10 5 -6 12 4 7 3 8 -5 4 -6 -4 -9 -11 -6 -16 3 -5 1 -11
-5 -15 -9 -5 -16 51 -10 80 1 6 -2 7 -6 3 -4 -4 -13 -3 -21 3 -10 9 -13 8 -13
-5z"/>
<path d="M723 1625 c13 -28 26 -33 23 -9 -1 9 -10 20 -18 25 -14 8 -15 6 -5
-16z"/>
<path d="M2000 1564 c0 -11 36 -46 60 -59 8 -4 4 2 -10 15 -14 13 -31 30 -37
38 -7 9 -13 11 -13 6z"/>
<path d="M2037 1493 c-3 -5 -1 -17 4 -28 7 -17 8 -17 8 8 1 27 -4 34 -12 20z"/>
<path d="M1834 1465 c1 -22 18 -24 24 -3 3 10 1 9 -6 -1 -8 -12 -11 -11 -15 5
-4 17 -4 17 -3 -1z"/>
<path d="M923 1451 c0 -11 6 -17 14 -14 7 3 13 0 13 -6 0 -6 5 -11 10 -11 6 0
3 11 -6 25 -19 30 -33 32 -31 6z"/>
<path d="M1806 1444 c-3 -9 -4 -19 -1 -22 3 -3 5 1 5 9 0 11 2 11 10 -1 5 -8
10 -10 10 -5 0 6 -4 16 -9 23 -6 11 -10 10 -15 -4z"/>
<path d="M1875 1450 c-3 -5 -3 -15 1 -22 5 -8 2 -9 -9 -5 -11 4 -17 1 -17 -8
0 -9 6 -12 15 -9 11 5 15 0 14 -17 0 -13 -3 -18 -6 -11 -2 6 -8 12 -13 12 -4
0 1 -18 11 -40 11 -22 22 -40 25 -40 2 0 0 9 -6 19 -12 24 -13 44 -2 37 5 -3
7 5 6 17 -1 12 -3 22 -4 22 -1 0 -3 10 -6 23 -2 14 0 21 6 17 5 -3 10 -1 10 4
0 14 -17 14 -25 1z"/>
<path d="M1755 1430 c1 -11 5 -23 10 -27 4 -5 5 -2 1 5 -4 7 -1 12 8 12 9 0
16 5 16 12 0 6 -3 8 -7 5 -3 -4 -11 -2 -18 3 -8 7 -11 4 -10 -10z"/>
<path d="M1129 1428 c-2 -23 3 -53 12 -68 5 -10 8 -5 6 17 -1 18 -6 33 -12 33
-5 0 -4 4 4 9 9 6 10 11 2 15 -6 4 -12 1 -12 -6z"/>
<path d="M1665 1434 c2 -4 0 -15 -5 -24 -7 -14 -6 -17 8 -16 9 0 17 -6 17 -14
0 -8 -6 -14 -12 -12 -15 2 -17 -24 -3 -33 6 -3 10 1 10 10 0 14 44 40 62 37 4
-1 5 5 2 13 -5 13 -8 13 -21 0 -15 -16 -38 -11 -27 6 3 5 0 8 -7 7 -7 -2 -13
2 -14 9 0 6 -3 14 -7 17 -5 3 -6 3 -3 0z"/>
<path d="M825 1421 c-3 -5 -1 -12 5 -16 5 -3 10 -11 10 -17 0 -6 -5 -7 -13 -2
-7 5 -5 2 5 -8 10 -9 18 -20 18 -25 0 -5 9 -16 20 -26 11 -9 19 -27 19 -39
l-2 -23 -4 23 c-2 12 -13 27 -24 32 -10 6 -19 17 -19 25 0 8 -4 15 -10 15 -5
0 -6 -7 -3 -17 4 -11 3 -14 -5 -9 -7 4 -12 3 -12 -2 0 -6 11 -13 25 -16 14 -4
30 -17 35 -30 14 -37 26 -38 28 -3 2 17 5 33 8 36 8 8 44 8 44 -1 0 -4 5 -8
11 -8 5 0 7 5 4 10 -9 15 12 12 22 -2 4 -7 8 -20 9 -28 3 -43 5 -50 14 -50 7
0 7 7 0 21 -9 15 -8 24 1 35 8 9 8 14 1 14 -6 0 -9 7 -5 16 5 13 8 13 15 2 7
-9 8 -8 4 5 -3 10 -6 22 -6 25 -1 4 -6 -3 -13 -16 -13 -22 -13 -22 -34 -3 -18
18 -22 18 -27 5 -3 -9 -12 -14 -20 -11 -7 3 -17 2 -22 -3 -5 -5 -18 -2 -29 6
-17 13 -18 17 -6 37 13 20 13 21 -2 8 -15 -12 -17 -11 -17 8 0 11 -6 21 -12
21 -9 0 -8 4 2 10 9 6 10 10 3 10 -6 0 -14 -4 -18 -9z"/>
<path d="M914 1384 c0 -19 3 -29 7 -23 5 8 8 7 12 -2 4 -8 4 0 0 16 -8 44 -18
49 -19 9z"/>
<path d="M1037 1408 c6 -7 13 -20 16 -28 4 -10 6 -8 6 6 1 12 -6 25 -15 28
-13 5 -14 3 -7 -6z"/>
<path d="M1080 1409 c0 -5 5 -7 10 -4 6 3 10 3 11 -2 0 -4 2 -18 3 -31 2 -13
10 -30 19 -38 9 -8 13 -9 8 -3 -5 6 -7 18 -4 27 5 11 3 13 -7 7 -8 -5 -11 -3
-8 6 6 17 -9 49 -22 49 -6 0 -10 -5 -10 -11z"/>
<path d="M1925 1399 c5 -16 4 -19 -5 -14 -9 6 -11 4 -5 -5 12 -19 14 -80 2
-73 -6 4 -7 1 -3 -6 10 -15 -25 -11 -37 4 -5 6 -7 4 -5 -4 2 -8 11 -16 19 -17
7 -2 25 -5 37 -8 18 -4 21 -2 15 7 -14 18 -10 102 4 100 17 -4 5 24 -13 31
-12 5 -14 1 -9 -15z"/>
<path d="M1803 1395 c-3 -9 -3 -19 1 -22 3 -4 6 -1 6 5 0 7 5 12 11 12 6 0 8
-9 4 -22 -5 -19 -4 -20 5 -6 11 17 4 48 -11 48 -5 0 -12 -7 -16 -15z"/>
<path d="M984 1375 c-2 -21 1 -24 12 -14 11 9 11 15 3 25 -15 18 -14 18 -15
-11z"/>
<path d="M1613 1373 c0 -14 -7 -29 -15 -34 -10 -7 -10 -9 0 -9 17 0 38 48 26
60 -5 5 -10 -1 -11 -17z"/>
<path d="M1749 1364 c-11 -14 -10 -19 10 -35 22 -18 41 -25 41 -14 0 3 -11 10
-25 15 -15 6 -23 15 -19 24 4 11 11 9 31 -10 14 -13 34 -24 44 -24 11 0 19 -5
19 -11 0 -5 -4 -7 -10 -4 -5 3 -10 -3 -10 -14 0 -11 -5 -23 -11 -26 -6 -5 -4
-12 8 -20 21 -15 43 -3 42 24 0 10 -4 7 -11 -9 l-11 -25 -5 24 c-2 13 0 26 5
30 12 8 24 41 15 40 -19 -3 -25 2 -12 11 8 5 11 12 6 17 -4 4 -12 0 -17 -10
-13 -23 -22 -22 -51 8 -23 23 -27 24 -39 9z"/>
<path d="M1030 1359 c0 -9 7 -22 15 -29 11 -9 15 -9 15 -1 0 7 4 10 10 6 5 -3
7 -12 4 -19 -3 -8 -1 -17 5 -21 7 -3 8 0 5 9 -3 9 -1 16 5 16 6 0 11 -5 11
-11 0 -5 5 -7 11 -3 8 5 6 10 -5 16 -9 5 -16 17 -16 26 0 13 -2 14 -9 4 -12
-20 -18 -19 -35 3 -13 17 -15 17 -16 4z"/>
<path d="M1630 1350 c0 -5 5 -10 10 -10 6 0 8 -12 5 -27 -4 -23 -4 -25 4 -8 9
19 10 19 10 1 1 -11 4 -16 7 -13 9 8 -16 67 -27 67 -5 0 -9 -4 -9 -10z"/>
<path d="M1711 1352 c-1 -8 -6 -10 -13 -6 -10 5 -10 4 -1 -6 6 -7 9 -18 7 -25
-3 -7 -1 -16 5 -20 7 -4 8 0 5 10 -7 17 16 17 28 0 5 -6 8 -6 8 2 0 7 -6 16
-14 20 -7 4 -16 15 -19 23 -4 10 -6 11 -6 2z"/>
<path d="M1953 1335 c0 -14 3 -25 8 -25 15 0 17 15 4 33 -11 16 -12 15 -12 -8z"/>
<path d="M1682 1300 c1 -14 -1 -31 -6 -38 -5 -9 -2 -20 8 -30 14 -15 18 -15
26 -2 5 8 6 18 4 22 -3 5 6 7 20 4 14 -3 26 0 26 6 0 5 -6 8 -14 5 -7 -3 -19
0 -25 6 -10 10 -16 -1 -12 -25 0 -5 -6 -8 -14 -8 -17 0 -19 12 -5 26 7 7 7 18
0 35 l-10 24 2 -25z"/>
<path d="M1760 1300 c0 -5 5 -10 11 -10 5 0 8 -3 6 -7 -3 -5 6 -9 19 -9 13 -1
21 2 18 7 -3 5 -12 9 -20 9 -8 0 -14 5 -14 10 0 6 -4 10 -10 10 -5 0 -10 -4
-10 -10z"/>
<path d="M923 1274 c-10 -21 -8 -26 8 -34 15 -9 19 -7 18 7 0 10 -3 26 -7 35
-6 15 -9 14 -19 -8z"/>
<path d="M1020 1271 c0 -5 11 -16 25 -25 14 -9 25 -15 25 -13 0 2 -11 13 -25
25 -14 12 -25 18 -25 13z"/>
<path d="M970 1237 c0 -3 7 -13 16 -21 12 -12 20 -13 35 -6 10 6 19 15 19 21
0 6 -7 3 -16 -6 -15 -15 -18 -15 -35 1 -11 9 -19 14 -19 11z"/>
<path d="M1753 1220 c-1 -13 3 -17 13 -13 8 3 14 -1 14 -10 0 -8 7 -18 16 -21
14 -5 15 -4 4 9 -7 8 -8 15 -2 15 17 0 33 -27 26 -44 -4 -11 -1 -16 12 -15 11
0 14 3 7 5 -7 3 -10 11 -7 18 3 7 -9 24 -26 39 -16 15 -30 24 -30 21 0 -4 -6
-2 -13 4 -10 8 -13 6 -14 -8z"/>
<path d="M889 1221 c7 -5 11 -13 7 -19 -3 -6 -1 -14 5 -18 8 -4 9 -3 5 4 -4 7
-3 12 3 12 5 0 11 -6 14 -12 2 -7 2 -3 0 9 -2 17 1 21 12 17 8 -3 13 -9 10
-13 -2 -4 9 -23 26 -42 17 -19 28 -29 25 -22 -4 6 -2 14 3 18 11 6 3 35 -10
35 -4 0 -6 -8 -2 -17 6 -16 4 -16 -16 1 -14 13 -18 22 -10 27 16 9 -1 18 -47
24 -24 3 -34 1 -25 -4z"/>
<path d="M1717 1211 c-3 -14 -1 -18 9 -14 16 6 18 19 5 27 -5 3 -11 -3 -14
-13z"/>
<path d="M1753 1161 c-11 -17 -10 -20 6 -18 12 1 17 7 13 19 -5 22 -5 22 -19
-1z"/>
<path d="M1790 1143 c0 -12 28 -38 34 -32 2 2 -5 13 -15 23 -11 11 -19 15 -19
9z"/>
<path d="M1710 1132 c0 -11 20 -38 20 -27 0 6 5 3 10 -5 5 -8 10 -10 10 -5 0
6 -9 18 -20 28 -11 9 -20 13 -20 9z"/>
<path d="M978 1112 c9 -10 19 -14 21 -9 2 5 -3 13 -10 18 -24 15 -30 10 -11
-9z"/>
<path d="M1406 1091 c0 -15 4 -33 8 -39 3 -6 1 -14 -5 -18 -8 -5 -9 -3 -4 7 8
12 6 12 -8 0 -23 -18 -21 -23 5 -19 11 2 23 -2 25 -8 7 -19 -27 -25 -57 -9
-28 14 -28 14 -16 -10 6 -14 15 -25 19 -25 5 0 6 4 3 9 -3 5 4 9 17 10 53 1
55 3 47 33 -7 22 -5 30 10 38 26 14 29 13 25 -11 -3 -12 -1 -18 3 -15 4 4 7
12 7 18 0 6 8 12 18 14 11 1 22 5 25 9 4 3 -6 4 -21 1 -15 -2 -27 -1 -27 3 0
4 -7 8 -15 8 -8 0 -12 -4 -10 -8 3 -4 -2 -10 -11 -13 -23 -9 -24 -8 -24 18 0
14 -3 27 -7 29 -5 3 -8 -7 -7 -22z"/>
<path d="M1769 1113 c-9 -52 -5 -60 20 -44 11 7 10 11 -5 20 -17 11 -16 11 6
5 22 -6 23 -5 8 10 -18 17 -27 20 -29 9z"/>
<path d="M1139 1103 c0 -5 -2 -16 -4 -25 -2 -10 1 -18 6 -18 5 0 9 11 9 25 0
22 -9 37 -11 18z"/>
<path d="M1345 1090 c-3 -4 0 -10 6 -12 7 -2 5 -9 -5 -17 -14 -12 -16 -11 -16
5 0 13 -3 15 -11 7 -9 -9 -18 -8 -35 4 -15 9 -24 11 -24 4 0 -6 6 -11 14 -11
8 0 16 -5 18 -11 2 -5 10 -11 18 -13 8 -1 24 -7 36 -13 16 -10 21 -9 21 2 0 8
-5 11 -10 8 -5 -3 -7 0 -5 8 3 8 13 13 22 13 20 -2 20 -2 -4 18 -10 10 -22 13
-25 8z"/>
<path d="M1683 1063 c0 -35 -3 -44 -13 -38 -5 3 -10 1 -10 -5 0 -7 6 -10 14
-7 8 3 17 3 19 -1 2 -4 2 -1 0 7 -2 7 4 19 13 26 10 6 14 17 10 23 -11 18 -33
14 -33 -5z"/>
<path d="M1069 1052 c-12 -12 -14 -23 -8 -37 8 -18 9 -18 5 3 -3 16 0 22 8 19
6 -3 13 4 13 14 2 22 2 22 -18 1z"/>
<path d="M1525 1050 c-4 -6 -3 -9 2 -8 4 1 18 -3 30 -10 24 -14 36 -4 22 18
-7 13 -9 13 -9 0 0 -9 -3 -11 -8 -5 -10 14 -30 17 -37 5z"/>
<path d="M1606 1042 c-7 -12 5 -52 15 -52 12 0 11 17 -2 25 -6 4 -8 13 -5 21
6 15 0 19 -8 6z"/>
<path d="M1123 1010 c-1 -11 3 -23 9 -26 6 -4 8 -2 4 4 -3 5 -1 12 5 14 7 2 7
8 -3 15 -11 10 -14 8 -15 -7z"/>
<path d="M1561 1000 c27 -47 52 -71 61 -58 11 18 10 38 -2 38 -5 0 -7 -7 -4
-15 4 -8 3 -15 -1 -15 -10 0 -35 27 -35 38 0 5 -7 16 -17 23 -15 13 -15 12 -2
-11z"/>
<path d="M1196 998 c5 -7 0 -9 -14 -6 -16 5 -20 2 -17 -15 5 -24 34 -57 51
-57 7 0 17 -12 23 -27 9 -24 10 -24 7 -4 -3 13 2 30 10 38 11 11 14 12 14 1 0
-10 3 -9 10 2 8 13 10 13 10 -2 0 -9 4 -19 9 -22 13 -9 7 52 -7 64 -9 7 -9 7
-2 -2 14 -17 12 -25 -5 -25 -8 0 -15 5 -15 11 -1 6 -10 0 -20 -13 -11 -13 -20
-18 -20 -11 0 7 -7 10 -16 6 -13 -5 -14 -3 -6 7 6 7 7 18 2 26 -4 8 -6 20 -3
28 3 7 0 13 -7 13 -6 0 -8 -5 -4 -12z m4 -38 c0 -11 -2 -20 -5 -20 -2 0 -9 9
-15 20 -9 16 -8 20 5 20 8 0 15 -9 15 -20z"/>
<path d="M1500 1005 c0 -3 10 -16 21 -28 l21 -22 -11 22 c-11 22 -31 40 -31
28z"/>
<path d="M1315 989 c-4 -6 -4 -13 -1 -16 3 -4 6 -1 6 5 0 6 7 9 17 5 11 -4 14
-3 9 5 -9 15 -23 15 -31 1z"/>
<path d="M1545 972 c0 -21 -4 -26 -18 -24 -15 3 -13 -2 9 -27 15 -17 31 -28
37 -24 6 3 1 10 -11 14 -23 9 -29 24 -12 34 12 7 13 42 2 49 -4 2 -8 -8 -7
-22z"/>
<path d="M1464 973 c2 -10 6 -16 11 -15 4 2 12 -2 16 -10 6 -9 9 -9 9 -1 0 6
-5 15 -10 18 -6 4 -8 11 -5 16 4 5 0 9 -9 9 -8 0 -13 -8 -12 -17z"/>
<path d="M1410 960 c0 -5 4 -10 10 -10 5 0 7 -7 4 -15 -7 -18 -44 -20 -44 -3
0 6 -3 8 -7 4 -14 -13 29 -37 43 -25 10 8 18 7 29 -5 23 -23 38 -20 29 7 -3
12 -7 22 -8 23 0 0 -13 8 -28 17 -16 10 -28 13 -28 7z"/>
<path d="M1566 943 c-3 -4 3 -13 15 -21 11 -8 22 -12 23 -11 5 7 -32 37 -38
32z"/>
<path d="M1504 887 c-1 -23 1 -32 3 -20 3 15 9 20 21 17 10 -4 13 -3 6 3 -6 4
-15 16 -20 25 -8 14 -10 8 -10 -25z"/>
<path d="M1319 897 c-9 -20 -9 -20 4 -5 9 11 18 14 28 7 18 -11 32 -12 25 0
-13 20 -46 19 -57 -2z"/>
<path d="M1286 878 c5 -8 2 -9 -12 -4 -16 6 -15 4 4 -14 13 -12 31 -23 40 -24
9 -2 17 -8 17 -14 0 -6 3 -13 7 -17 3 -4 6 -1 5 7 -3 19 -37 65 -37 50 0 -7
-4 -11 -10 -7 -5 3 -7 12 -3 20 3 8 0 15 -7 15 -6 0 -8 -5 -4 -12z"/>
<path d="M1428 872 c16 -17 32 -11 32 13 0 6 -5 3 -10 -5 -6 -10 -10 -11 -10
-2 0 6 -7 12 -15 12 -12 0 -12 -3 3 -18z"/>
<path d="M1403 852 c10 -13 8 -14 -13 -9 -14 4 -19 4 -12 1 6 -3 12 -12 12
-21 0 -25 25 -8 28 19 2 17 -2 25 -12 25 -13 0 -13 -3 -3 -15z"/>
<path d="M2230 1403 c0 -6 6 -13 13 -16 9 -3 9 -7 -1 -19 -8 -10 -9 -19 -3
-22 18 -11 24 35 7 52 -9 9 -16 11 -16 5z"/>
<path d="M1906 982 c-50 -54 -53 -78 -14 -115 29 -27 31 -27 49 -11 26 24 24
49 -8 69 -22 15 -30 16 -47 5 -12 -7 -1 8 24 34 42 44 66 62 40 31 -16 -20 12
-65 40 -65 47 0 71 68 31 89 -35 19 -74 7 -115 -37z m109 8 c4 -6 1 -18 -6
-26 -11 -13 -14 -13 -27 0 -8 8 -11 19 -8 25 9 14 33 14 41 1z m-105 -80 c-6
-11 -16 -18 -21 -14 -6 3 -3 12 8 20 24 18 26 17 13 -6z"/>
<path d="M537 1404 c-6 -10 9 -42 16 -34 3 3 1 14 -3 24 -3 11 -9 15 -13 10z"/>
<path d="M565 1377 c2 -22 8 -33 21 -35 15 -3 17 -1 7 9 -7 7 -13 21 -13 30 0
10 -4 20 -9 23 -5 3 -8 -9 -6 -27z"/>
<path d="M480 1389 c0 -8 7 -24 15 -35 11 -15 14 -16 15 -3 0 8 -7 24 -15 35
-11 15 -14 16 -15 3z"/>
<path d="M510 1321 c0 -16 67 -155 97 -201 13 -19 29 -43 36 -54 64 -98 237
-296 237 -271 0 6 -16 27 -35 47 -32 33 -34 40 -23 58 19 31 30 24 22 -15 -5
-28 -3 -35 10 -35 20 0 66 39 66 57 0 17 -10 16 -32 -4 -22 -19 -36 -10 -18
12 9 11 10 18 1 28 -6 8 -7 17 -3 22 4 4 -2 3 -13 -3 -30 -15 -58 -49 -50 -61
10 -18 -9 -12 -25 7 -31 35 -70 89 -70 95 0 4 15 14 33 23 35 18 48 33 41 46
-6 10 -40 -7 -68 -34 -20 -18 -21 -18 -38 4 -16 22 -16 23 5 28 15 4 18 8 9
14 -6 4 -12 14 -12 22 0 19 37 18 48 -2 7 -12 11 -13 17 -5 7 13 -30 51 -50
51 -17 0 -32 -21 -37 -50 -3 -23 -7 -20 -39 30 -19 30 -48 84 -64 120 -32 70
-45 92 -45 71z"/>
<path d="M634 1206 c-3 -8 -3 -20 1 -26 3 -5 1 -10 -4 -10 -6 0 -11 8 -11 17
0 12 -3 14 -11 6 -8 -8 -8 -17 1 -33 14 -27 44 -22 48 8 3 18 8 21 24 16 16
-5 19 -2 16 13 -4 23 -56 31 -64 9z"/>
<path d="M373 1110 c-36 -21 -39 -30 -21 -48 19 -19 30 -14 24 11 -3 12 -3 16
0 10 7 -15 34 -17 34 -3 0 6 -5 10 -12 10 -6 0 -8 3 -5 6 4 4 13 2 20 -4 19
-16 28 -4 14 19 -15 23 -15 23 -54 -1z"/>
<path d="M406 1055 c-10 -8 -23 -16 -27 -17 -14 -5 2 -48 18 -48 9 0 13 -6 10
-15 -7 -17 9 -30 18 -15 3 5 13 10 22 10 13 0 13 -3 -2 -26 -25 -38 -6 -50 39
-24 20 12 36 26 36 31 0 12 -27 11 -35 -1 -3 -5 -12 -10 -18 -10 -8 0 -9 3 -1
8 15 10 23 47 13 63 -6 11 -11 10 -27 -4 -23 -21 -29 -21 -50 0 -16 16 -16 16
6 11 18 -5 22 -3 18 8 -6 16 10 19 19 4 12 -19 25 0 15 21 -13 22 -28 24 -54
4z"/>
<path d="M331 1045 c0 -5 6 -19 14 -29 8 -11 15 -15 15 -10 0 6 -7 19 -15 30
-8 10 -14 15 -14 9z"/>
<path d="M773 1008 c-35 -25 -40 -37 -21 -56 17 -17 31 -15 24 4 -5 13 -2 15
15 11 16 -4 19 -2 15 10 -4 10 -2 13 8 10 10 -4 14 0 13 13 -1 10 -4 17 -8 14
-4 -2 -9 0 -11 6 -2 6 -18 0 -35 -12z"/>
<path d="M380 951 c0 -5 6 -16 13 -23 6 -7 18 -24 25 -38 20 -38 80 -105 88
-97 4 4 13 2 20 -4 17 -14 40 -1 25 14 -7 7 -2 16 15 29 24 19 32 38 16 38 -4
0 -25 -15 -45 -33 l-36 -34 -21 24 c-23 27 -27 41 -5 23 21 -17 58 -3 52 21
-4 14 0 19 14 19 16 0 17 3 7 19 -15 24 -48 11 -48 -19 0 -22 -16 -27 -23 -7
-4 9 -8 8 -16 -3 -12 -17 -10 -18 -45 38 -26 42 -36 51 -36 33z"/>
<path d="M930 854 c0 -9 -9 -27 -20 -41 -16 -20 -18 -29 -8 -40 16 -20 73 -59
64 -44 -5 8 -3 12 5 10 28 -3 39 1 39 16 0 8 4 15 9 15 12 0 23 29 15 42 -3 5
-23 -9 -43 -32 l-36 -41 -24 20 -24 21 29 22 c16 13 32 24 36 24 5 1 11 2 15
3 10 2 -34 41 -47 41 -5 0 -10 -7 -10 -16z"/>
<path d="M606 792 c-11 -2 -26 -10 -33 -17 -11 -12 -9 -18 12 -41 14 -15 27
-25 29 -23 1 2 10 18 18 36 18 36 8 53 -26 45z"/>
<path d="M2073 745 c-40 -40 -54 -61 -35 -53 14 5 95 98 86 97 -5 0 -28 -20
-51 -44z"/>
<path d="M732 709 c2 -7 10 -15 17 -17 8 -3 12 1 9 9 -2 7 -10 15 -17 17 -8 3
-12 -1 -9 -9z"/>
<path d="M980 712 c0 -6 11 -17 25 -26 14 -9 25 -13 25 -9 -1 12 -50 46 -50
35z"/>
<path d="M1911 577 c2 -1 14 -11 27 -21 12 -11 22 -16 22 -13 0 10 -31 37 -42
37 -6 0 -9 -1 -7 -3z"/>
<path d="M1195 521 c-2 -4 12 -7 31 -8 19 0 33 1 30 4 -7 8 -56 11 -61 4z"/>
<path d="M1897 512 c5 -10 8 -11 13 -1 6 8 9 6 12 -7 4 -18 4 -18 9 2 5 16 1
20 -16 20 -15 0 -21 -5 -18 -14z"/>
<path d="M1314 498 c-3 -13 -13 -31 -22 -40 -14 -17 -13 -18 21 -18 39 0 59
-16 30 -23 -10 -3 20 -5 67 -5 47 0 75 3 62 6 -13 4 -24 11 -25 17 -1 5 -9 9
-17 7 -10 -2 -16 6 -18 23 -1 22 2 25 28 25 22 0 28 4 24 15 -8 19 -29 19 -59
-1 -29 -19 -32 -40 -8 -66 15 -17 15 -18 -4 -18 -11 0 -20 6 -21 13 0 6 -3 21
-6 32 -2 11 -5 28 -5 38 -1 25 -38 21 -47 -5z"/>
<path d="M1504 487 c0 -13 6 -24 13 -24 9 0 9 6 1 21 -15 30 -16 30 -14 3z"/>
<path d="M1575 499 c-4 -6 -14 -8 -22 -4 -14 5 -14 3 -2 -11 12 -14 14 -14 24
0 7 9 16 12 20 8 5 -4 5 -1 1 6 -9 15 -13 15 -21 1z"/>
<path d="M1877 479 c-4 -13 -1 -28 5 -34 8 -7 9 -6 3 4 -4 7 -3 16 3 20 6 4 7
12 3 20 -6 9 -10 6 -14 -10z"/>
<path d="M947 457 c-8 -13 -17 -36 -19 -52 -2 -24 4 -34 42 -62 25 -18 50 -37
55 -41 20 -15 146 -64 151 -59 3 3 -21 15 -53 26 -59 22 -198 109 -189 119 3
3 12 -1 20 -7 11 -10 19 -9 35 1 12 7 21 18 21 25 0 6 6 13 13 16 9 3 9 8 1
16 -9 10 -17 6 -33 -15 -15 -19 -25 -24 -32 -17 -7 7 -5 15 5 26 17 17 22 47
7 47 -5 0 -16 -10 -24 -23z"/>
<path d="M1245 430 c19 -8 73 -14 64 -6 -2 2 -22 6 -44 9 -28 5 -34 4 -20 -3z"/>
<path d="M1605 429 c-18 -7 -18 -8 4 -8 24 -1 24 -1 5 -16 -25 -19 -14 -19 22
0 23 12 31 12 39 2 6 -6 23 -18 38 -26 15 -8 26 -20 23 -26 -2 -6 7 -12 20
-13 24 -2 32 12 14 23 -5 3 -10 22 -10 41 0 24 -5 34 -15 34 -8 0 -15 -7 -15
-15 0 -8 -7 -15 -15 -15 -24 0 -30 4 -29 18 1 6 0 12 -2 12 -2 0 -13 -6 -24
-12 -15 -10 -23 -10 -28 -2 -4 7 -15 8 -27 3z"/>
<path d="M1023 385 c-17 -35 -10 -64 8 -32 15 26 29 20 29 -13 0 -21 5 -30 16
-30 9 0 21 14 27 30 6 17 15 30 19 30 4 0 8 5 8 10 0 6 -7 10 -15 10 -8 0 -15
-4 -15 -10 0 -5 -7 -10 -15 -10 -9 0 -15 6 -14 13 6 49 -25 50 -48 2z"/>
<path d="M1230 403 c21 -9 74 -16 135 -18 l100 -4 -95 9 c-52 4 -108 13 -123
19 -43 17 -57 12 -17 -6z"/>
<path d="M1520 404 c-31 -8 -37 -13 -20 -13 14 0 39 6 55 14 37 17 24 16 -35
-1z"/>
<path d="M1625 374 c-14 -12 -16 -18 -7 -21 7 -3 19 -18 27 -34 9 -16 20 -29
25 -29 14 0 13 37 -1 46 -6 3 -8 17 -5 30 7 28 -9 31 -39 8z"/>
<path d="M1134 353 c-3 -10 -10 -26 -15 -35 -13 -25 -12 -28 10 -28 12 0 21 9
25 24 3 13 9 31 12 40 4 11 1 16 -10 16 -9 0 -19 -8 -22 -17z"/>
<path d="M1198 350 c-7 -22 4 -90 15 -90 16 0 67 51 67 67 0 19 -10 16 -38 -9
-24 -23 -24 -23 -18 -2 7 22 -18 56 -26 34z"/>
<path d="M1565 350 c-9 -15 17 -80 32 -80 17 0 16 24 -2 60 -17 33 -21 35 -30
20z"/>
<path d="M1492 328 c-19 -19 -14 -37 13 -44 20 -5 23 -9 15 -19 -18 -22 6 -26
25 -5 18 20 18 21 -1 35 -10 8 -23 15 -28 15 -6 0 -1 7 10 15 19 14 19 14 -1
15 -12 0 -26 -5 -33 -12z"/>
<path d="M1310 290 c0 -22 0 -43 0 -47 0 -7 9 -8 40 -4 6 0 10 6 10 12 0 5 -4
8 -9 4 -5 -3 -12 -1 -16 5 -3 5 1 10 9 10 22 0 20 20 -1 20 -17 1 -17 1 0 14
24 18 21 26 -8 26 -22 0 -25 -4 -25 -40z"/>
<path d="M1403 323 c-7 -2 -13 -21 -13 -42 0 -35 2 -37 33 -38 31 -1 33 1 34
38 1 21 -2 39 -7 39 -4 0 -14 2 -22 4 -7 3 -19 2 -25 -1z"/>
<path d="M1740 305 c-7 -8 -8 -15 -2 -15 5 0 15 7 22 15 7 8 8 15 2 15 -5 0
-15 -7 -22 -15z"/>
<path d="M1626 255 c-25 -19 -9 -19 24 0 14 8 19 14 10 14 -8 0 -24 -6 -34
-14z"/>
<path d="M1210 230 c14 -4 41 -8 60 -8 l35 0 -40 9 c-22 4 -49 8 -60 7 -16 0
-15 -2 5 -8z"/>
<path d="M1525 230 c-16 -4 -73 -9 -125 -10 -81 -2 -89 -4 -55 -11 42 -9 197
6 225 22 13 7 13 8 0 8 -8 -1 -28 -5 -45 -9z"/>
</g>
</svg>
